<?xml version="1.0" encoding="utf-8"?>
<svg viewBox="87.83 65.442 281.285 102.756" width="281.285" height="102.756" xmlns="http://www.w3.org/2000/svg">
  <g transform="matrix(1, 0, 0, 1, 154.172501, 96.419998)" style="opacity: 0.9;">
    <linearGradient id="center-env_1_" gradientUnits="userSpaceOnUse" x1="-279.1934" y1="-357.6718" x2="-279.1934" y2="-371.7192" gradientTransform="matrix(-0.987 -0.1606 0.1606 -0.987 -187.6198 -372.79)">
      <stop offset="0" style="stop-color:#D5D5D0"/>
      <stop offset="0.1161" style="stop-color:#E0E0DA"/>
      <stop offset="0.3441" style="stop-color:#EFEFE7"/>
      <stop offset="0.6097" style="stop-color:#F8F8EF"/>
      <stop offset="1" style="stop-color:#FBFBF1"/>
    </linearGradient>
    <polygon id="center-env" class="st0" points="19.7,23.3 41.4,26.8 39.1,40.7 17.4,37.2 &#9;" style="fill: url(#center-env_1_);"/>
    <g id="lower-shadow">
      <path class="st1" d="M17.5,36.8c0,0,0.1-0.9,1-1.5c1-0.5,9.4-4.1,9.8-4.2c0.3-0.1,1-0.3,1.2-0.2c0.2,0,0.8,0.4,1.1,0.6 c0.3,0.2,7.2,6.3,7.9,7.1c0.8,0.8,0.6,1.7,0.6,1.7L17.5,36.8z" style="fill: rgb(255, 255, 255); opacity: 0;"/>
      <path class="st2" d="M17.5,36.8c0,0,0.1-0.9,1-1.5c1-0.5,9.4-4.1,9.8-4.2c0.3-0.1,1-0.3,1.2-0.2c0.2,0,0.8,0.4,1.1,0.6 c0.3,0.2,7.2,6.3,7.9,7.1c0.8,0.8,0.6,1.7,0.6,1.7L17.5,36.8z" style="fill: rgb(254, 254, 254); opacity: 0.0142857;"/>
      <path class="st3" d="M17.5,36.8c0,0,0.1-0.9,1-1.5c1-0.5,9.4-4.1,9.8-4.2c0.3-0.1,1-0.3,1.2-0.2c0.2,0,0.8,0.4,1.1,0.6 c0.3,0.2,7.2,6.3,7.9,7.1c0.8,0.8,0.6,1.7,0.6,1.7L17.5,36.8z" style="fill: rgb(253, 253, 253); opacity: 0.0285714;"/>
      <path class="st4" d="M17.5,36.8c0,0,0.1-0.9,1-1.4c1-0.5,9.4-4.1,9.8-4.2c0.3-0.1,1-0.3,1.2-0.2c0.2,0,0.8,0.4,1.1,0.6 c0.3,0.2,7.2,6.3,7.9,7.1c0.8,0.8,0.6,1.7,0.6,1.7L17.5,36.8z" style="fill: rgb(252, 252, 252); opacity: 0.0428571;"/>
      <path class="st5" d="M17.5,36.8c0,0,0.1-0.9,1-1.4c1-0.5,9.4-4.1,9.8-4.2c0.3-0.1,1-0.3,1.2-0.2c0.2,0,0.8,0.4,1.1,0.6 c0.3,0.2,7.2,6.3,7.9,7.1c0.8,0.8,0.6,1.7,0.6,1.7L17.5,36.8z" style="fill: rgb(251, 251, 251); opacity: 0.0571429;"/>
      <path class="st6" d="M17.5,36.8c0,0,0.1-0.9,1-1.4c1-0.5,9.4-4.1,9.8-4.2c0.3-0.1,1-0.3,1.2-0.2c0.2,0,0.8,0.4,1.1,0.6 c0.3,0.2,7.2,6.3,7.9,7.1c0.8,0.8,0.6,1.6,0.6,1.6L17.5,36.8z" style="fill: rgb(250, 250, 250); opacity: 0.0714286;"/>
      <path class="st7" d="M17.5,36.8c0,0,0.1-0.9,1-1.4c1-0.5,9.4-4.1,9.8-4.2c0.3-0.1,1-0.3,1.2-0.2c0.2,0,0.8,0.4,1.1,0.6 c0.3,0.2,7.2,6.3,7.9,7.1c0.8,0.8,0.6,1.6,0.6,1.6L17.5,36.8z" style="fill: rgb(249, 249, 249); opacity: 0.0857143;"/>
      <path class="st8" d="M17.5,36.8c0,0,0.1-0.9,1-1.4c1-0.5,9.4-4.1,9.8-4.2c0.3-0.1,1-0.3,1.2-0.2c0.2,0,0.8,0.4,1.1,0.6 c0.3,0.2,7.2,6.3,7.9,7.1c0.8,0.8,0.6,1.6,0.6,1.6L17.5,36.8z" style="fill: rgb(248, 248, 248); opacity: 0.1;"/>
      <path class="st9" d="M17.5,36.8c0,0,0.1-0.9,1-1.4c1-0.5,9.4-4.1,9.8-4.2c0.3-0.1,1-0.3,1.2-0.2c0.2,0,0.8,0.4,1.1,0.6 c0.3,0.2,7.2,6.3,7.9,7.1c0.8,0.8,0.6,1.6,0.6,1.6L17.5,36.8z" style="fill: rgb(247, 247, 248); opacity: 0.1143;"/>
      <path class="st10" d="M17.5,36.8c0,0,0.1-0.9,1-1.4c1-0.5,9.4-4.1,9.8-4.2c0.3-0.1,1-0.3,1.2-0.2c0.2,0,0.8,0.4,1.1,0.6 c0.3,0.2,7.2,6.3,7.9,7.1c0.8,0.8,0.6,1.6,0.6,1.6L17.5,36.8z" style="fill: rgb(246, 246, 247); opacity: 0.1286;"/>
      <path class="st11" d="M17.5,36.8c0,0,0.1-0.9,1-1.4c1-0.5,9.4-4.1,9.8-4.2c0.3-0.1,1-0.3,1.2-0.2c0.2,0,0.8,0.4,1.1,0.6 c0.3,0.2,7.2,6.3,7.9,7.1c0.8,0.8,0.6,1.6,0.6,1.6L17.5,36.8z" style="fill: rgb(245, 245, 246); opacity: 0.1429;"/>
      <path class="st12" d="M17.5,36.8c0,0,0.1-0.9,1-1.4c1-0.5,9.4-4.1,9.8-4.2c0.3-0.1,1-0.3,1.2-0.2c0.2,0,0.8,0.4,1.1,0.6 c0.3,0.2,7.2,6.3,7.9,7.1c0.8,0.8,0.6,1.6,0.6,1.6L17.5,36.8z" style="fill: rgb(244, 244, 245); opacity: 0.1571;"/>
      <path class="st13" d="M17.5,36.8c0,0,0.1-0.8,1-1.4c1-0.5,9.4-4.1,9.8-4.2c0.3-0.1,1-0.3,1.2-0.2c0.2,0,0.8,0.4,1.1,0.6 c0.3,0.2,7.2,6.3,7.9,7.1c0.8,0.8,0.6,1.6,0.6,1.6L17.5,36.8z" style="fill: rgb(243, 243, 244); opacity: 0.1714;"/>
      <path class="st14" d="M17.5,36.8c0,0,0.1-0.8,1-1.4c1-0.5,9.4-4.1,9.8-4.2c0.3-0.1,1-0.3,1.2-0.2c0.2,0,0.8,0.4,1.1,0.6 c0.3,0.2,7.2,6.3,7.9,7.1c0.8,0.8,0.6,1.6,0.6,1.6L17.5,36.8z" style="fill: rgb(242, 243, 243); opacity: 0.1857;"/>
      <path class="st15" d="M17.5,36.8c0,0,0.1-0.8,1-1.4c1-0.5,9.4-4.1,9.8-4.2c0.3-0.1,1-0.3,1.2-0.2c0.2,0,0.8,0.4,1.1,0.6 c0.3,0.2,7.2,6.3,7.9,7.1c0.8,0.8,0.6,1.6,0.6,1.6L17.5,36.8z" style="fill: rgb(241, 242, 242); opacity: 0.2;"/>
      <path class="st16" d="M17.5,36.8c0,0,0.1-0.8,1-1.4c1-0.5,9.4-4.1,9.8-4.2c0.3-0.1,1-0.3,1.2-0.2c0.2,0,0.8,0.4,1.1,0.6 c0.3,0.2,7.2,6.3,7.9,7.1c0.8,0.8,0.6,1.6,0.6,1.6L17.5,36.8z" style="fill: rgb(240, 241, 241); opacity: 0.2143;"/>
      <path class="st17" d="M17.5,36.8c0,0,0.1-0.8,1-1.4c1-0.5,9.4-4.1,9.8-4.2c0.3-0.1,1-0.3,1.2-0.2c0.2,0,0.8,0.4,1.1,0.6 c0.3,0.2,7.2,6.3,7.9,7.1c0.8,0.8,0.6,1.6,0.6,1.6L17.5,36.8z" style="fill: rgb(239, 240, 240); opacity: 0.2286;"/>
      <path class="st18" d="M17.5,36.8c0,0,0.1-0.8,1-1.3c1-0.5,9.4-4.1,9.8-4.2c0.3-0.1,1-0.3,1.2-0.2c0.2,0,0.8,0.4,1.1,0.6 c0.3,0.2,7.2,6.3,7.9,7.1c0.8,0.8,0.6,1.6,0.6,1.6L17.5,36.8z" style="fill: rgb(238, 239, 239); opacity: 0.2429;"/>
      <path class="st19" d="M17.5,36.8c0,0,0.1-0.8,1-1.3c1-0.5,9.4-4.1,9.8-4.2c0.3-0.1,1-0.3,1.2-0.2c0.2,0,0.8,0.4,1.1,0.6 c0.3,0.2,7.2,6.3,7.9,7.1c0.8,0.8,0.6,1.6,0.6,1.6L17.5,36.8z" style="fill: rgb(237, 238, 238); opacity: 0.2571;"/>
      <path class="st20" d="M17.5,36.8c0,0,0.1-0.8,1-1.3c1-0.5,9.4-4.1,9.8-4.2c0.3-0.1,1-0.3,1.2-0.2c0.2,0,0.8,0.4,1.1,0.6 c0.3,0.2,7.2,6.3,7.9,7.1c0.8,0.8,0.6,1.6,0.6,1.6L17.5,36.8z" style="fill: rgb(236, 237, 237); opacity: 0.2714;"/>
      <path class="st21" d="M17.5,36.8c0,0,0.1-0.8,1-1.3c1-0.5,9.4-4.1,9.8-4.2c0.3-0.1,1-0.3,1.2-0.2c0.2,0,0.8,0.4,1.1,0.6 c0.3,0.2,7.2,6.3,7.9,7.1c0.8,0.8,0.6,1.5,0.6,1.5L17.5,36.8z" style="fill: rgb(235, 236, 236); opacity: 0.2857;"/>
      <path class="st22" d="M17.5,36.8c0,0,0.1-0.8,1-1.3c1-0.5,9.4-4.1,9.8-4.2c0.3-0.1,1-0.3,1.2-0.2c0.2,0,0.8,0.4,1.1,0.6 c0.3,0.2,7.2,6.3,7.9,7.1c0.8,0.8,0.6,1.5,0.6,1.5L17.5,36.8z" style="fill: rgb(234, 235, 235); opacity: 0.3;"/>
      <path class="st23" d="M17.5,36.8c0,0,0.1-0.8,1-1.3c1-0.5,9.4-4.1,9.8-4.2c0.3-0.1,1-0.3,1.2-0.2c0.2,0,0.8,0.4,1.1,0.6 c0.3,0.2,7.2,6.3,7.9,7.1c0.8,0.8,0.6,1.5,0.6,1.5L17.5,36.8z" style="fill: rgb(233, 234, 235); opacity: 0.3143;"/>
      <path class="st24" d="M17.5,36.8c0,0,0.1-0.8,1-1.3c1-0.5,9.4-4.1,9.8-4.2c0.3-0.1,1-0.3,1.2-0.2c0.2,0,0.8,0.4,1.1,0.6 c0.3,0.2,7.2,6.3,7.9,7.1c0.8,0.8,0.6,1.5,0.6,1.5L17.5,36.8z" style="fill: rgb(232, 233, 234); opacity: 0.3286;"/>
      <path class="st25" d="M17.5,36.8c0,0,0.1-0.8,1-1.3c1-0.5,9.4-4.1,9.8-4.2c0.3-0.1,1-0.3,1.2-0.2c0.2,0,0.8,0.4,1.1,0.6 c0.3,0.2,7.2,6.3,7.9,7.1c0.8,0.8,0.6,1.5,0.6,1.5L17.5,36.8z" style="fill: rgb(231, 232, 233); opacity: 0.3429;"/>
      <path class="st26" d="M17.5,36.8c0,0,0.1-0.8,1-1.3c1-0.5,9.4-4.1,9.8-4.2c0.3-0.1,1-0.3,1.2-0.2c0.2,0,0.8,0.4,1.1,0.6 c0.3,0.2,7.2,6.3,7.9,7.1c0.8,0.8,0.6,1.5,0.6,1.5L17.5,36.8z" style="fill: rgb(230, 231, 232); opacity: 0.3571;"/>
      <path class="st27" d="M17.5,36.8c0,0,0.1-0.8,1-1.3c1-0.5,9.4-4.1,9.8-4.2c0.3-0.1,1-0.3,1.2-0.2c0.2,0,0.8,0.4,1.1,0.6 c0.3,0.2,7.2,6.3,7.9,7.1c0.8,0.8,0.6,1.5,0.6,1.5L17.5,36.8z" style="fill: rgb(229, 230, 231); opacity: 0.3714;"/>
      <path class="st28" d="M17.5,36.8c0,0,0.1-0.7,1-1.3c1-0.5,9.4-4.1,9.8-4.2c0.3-0.1,1-0.3,1.2-0.2c0.2,0,0.8,0.4,1.1,0.6 c0.3,0.2,7.2,6.3,7.9,7.1c0.8,0.8,0.6,1.5,0.6,1.5L17.5,36.8z" style="fill: rgb(228, 229, 230); opacity: 0.3857;"/>
      <path class="st29" d="M17.5,36.8c0,0,0.1-0.7,1-1.3c1-0.5,9.4-4.1,9.8-4.2c0.3-0.1,1-0.3,1.2-0.2c0.2,0,0.8,0.4,1.1,0.6 c0.3,0.2,7.2,6.3,7.9,7.1c0.8,0.8,0.6,1.5,0.6,1.5L17.5,36.8z" style="fill: rgb(227, 228, 229); opacity: 0.4;"/>
      <path class="st30" d="M17.5,36.8c0,0,0.1-0.7,1-1.3c1-0.5,9.4-4.1,9.8-4.2c0.3-0.1,1-0.3,1.2-0.2c0.2,0,0.8,0.4,1.1,0.6 c0.3,0.2,7.2,6.3,7.9,7.1c0.8,0.8,0.6,1.5,0.6,1.5L17.5,36.8z" style="fill: rgb(226, 227, 228); opacity: 0.4143;"/>
      <path class="st31" d="M17.5,36.8c0,0,0.1-0.7,1-1.3c1-0.5,9.4-4.1,9.8-4.2c0.3-0.1,1-0.3,1.2-0.2c0.2,0,0.8,0.4,1.1,0.6 c0.3,0.2,7.2,6.3,7.9,7.1c0.8,0.8,0.6,1.5,0.6,1.5L17.5,36.8z" style="fill: rgb(225, 226, 227); opacity: 0.4286;"/>
      <path class="st32" d="M17.5,36.8c0,0,0.1-0.7,1-1.3c1-0.5,9.4-4.1,9.8-4.2c0.3-0.1,1-0.3,1.2-0.2c0.2,0,0.8,0.4,1.1,0.6 c0.3,0.2,7.2,6.3,7.9,7.1c0.8,0.8,0.6,1.5,0.6,1.5L17.5,36.8z" style="fill: rgb(224, 225, 226); opacity: 0.4429;"/>
      <path class="st33" d="M17.5,36.8c0,0,0.1-0.7,1-1.2c1-0.5,9.4-4.1,9.8-4.2c0.3-0.1,1-0.3,1.2-0.2c0.2,0,0.8,0.4,1.1,0.6 c0.3,0.2,7.2,6.3,7.9,7.1c0.8,0.8,0.6,1.5,0.6,1.5L17.5,36.8z" style="fill: rgb(223, 224, 225); opacity: 0.4571;"/>
      <path class="st34" d="M17.5,36.8c0,0,0.1-0.7,1-1.2c1-0.5,9.4-4.1,9.8-4.2c0.3-0.1,1-0.3,1.2-0.2c0.2,0,0.8,0.4,1.1,0.6 c0.3,0.2,7.2,6.3,7.9,7.1c0.8,0.8,0.6,1.5,0.6,1.5L17.5,36.8z" style="fill: rgb(222, 223, 224); opacity: 0.4714;"/>
      <path class="st35" d="M17.5,36.8c0,0,0.1-0.7,1-1.2c1-0.5,9.4-4.1,9.8-4.2c0.3-0.1,1-0.3,1.2-0.2c0.2,0,0.8,0.4,1.1,0.6 c0.3,0.2,7.2,6.3,7.9,7.1c0.8,0.8,0.6,1.5,0.6,1.5L17.5,36.8z" style="fill: rgb(221, 222, 223); opacity: 0.4857;"/>
      <path class="st36" d="M17.5,36.8c0,0,0.1-0.7,1-1.2c1-0.5,9.4-4.1,9.8-4.2c0.3-0.1,1-0.3,1.2-0.2c0.2,0,0.8,0.4,1.1,0.6 c0.3,0.2,7.2,6.3,7.9,7.1c0.8,0.8,0.6,1.4,0.6,1.4L17.5,36.8z" style="fill: rgb(220, 221, 222); opacity: 0.5;"/>
      <path class="st37" d="M17.5,36.8c0,0,0.1-0.7,1-1.2c1-0.5,9.4-4.1,9.8-4.2c0.3-0.1,1-0.3,1.2-0.2c0.2,0,0.8,0.4,1.1,0.6 c0.3,0.2,7.2,6.3,7.9,7.1c0.8,0.8,0.7,1.4,0.7,1.4L17.5,36.8z" style="fill: rgb(219, 220, 222); opacity: 0.5143;"/>
      <path class="st38" d="M17.5,36.8c0,0,0.1-0.7,1-1.2c1-0.5,9.4-4.1,9.8-4.2c0.3-0.1,1-0.3,1.2-0.2c0.2,0,0.8,0.4,1.1,0.6 c0.3,0.2,7.2,6.3,7.9,7.1c0.8,0.8,0.7,1.4,0.7,1.4L17.5,36.8z" style="fill: rgb(218, 219, 221); opacity: 0.5286;"/>
      <path class="st39" d="M17.5,36.8c0,0,0.1-0.7,1-1.2c1-0.5,9.4-4.1,9.8-4.2c0.3-0.1,1-0.3,1.2-0.2c0.2,0,0.8,0.4,1.1,0.6 c0.3,0.2,7.2,6.3,7.9,7.1c0.8,0.8,0.7,1.4,0.7,1.4L17.5,36.8z" style="fill: rgb(217, 218, 220); opacity: 0.5429;"/>
      <path class="st40" d="M17.5,36.8c0,0,0.1-0.7,1-1.2c1-0.5,9.4-4.1,9.8-4.2c0.3-0.1,1-0.3,1.2-0.2c0.2,0,0.8,0.4,1.1,0.6 c0.3,0.2,7.2,6.3,7.9,7.1c0.8,0.8,0.7,1.4,0.7,1.4L17.5,36.8z" style="fill: rgb(216, 218, 219); opacity: 0.5571;"/>
      <path class="st41" d="M17.5,36.8c0,0,0.1-0.7,1-1.2c1-0.5,9.4-4.1,9.8-4.2c0.3-0.1,1-0.3,1.2-0.2c0.2,0,0.8,0.4,1.1,0.6 c0.3,0.2,7.2,6.3,7.9,7.1c0.8,0.8,0.7,1.4,0.7,1.4L17.5,36.8z" style="fill: rgb(215, 217, 218); opacity: 0.5714;"/>
      <path class="st42" d="M17.5,36.8c0,0,0.1-0.6,1.1-1.2c1-0.5,9.4-4.1,9.8-4.2c0.3-0.1,1-0.3,1.2-0.2c0.2,0,0.8,0.4,1.1,0.6 c0.3,0.2,7.2,6.3,7.9,7.1c0.8,0.8,0.7,1.4,0.7,1.4L17.5,36.8z" style="fill: rgb(214, 216, 217); opacity: 0.5857;"/>
      <path class="st43" d="M17.5,36.8c0,0,0.1-0.6,1.1-1.2c1-0.5,9.4-4.1,9.8-4.2c0.3-0.1,1-0.3,1.2-0.2c0.2,0,0.8,0.4,1.1,0.6 c0.3,0.2,7.2,6.3,7.9,7.1c0.8,0.8,0.7,1.4,0.7,1.4L17.5,36.8z" style="fill: rgb(213, 215, 216); opacity: 0.6;"/>
      <path class="st44" d="M17.5,36.8c0,0,0.1-0.6,1.1-1.2c1-0.5,9.4-4.1,9.8-4.2c0.3-0.1,1-0.3,1.2-0.2c0.2,0,0.8,0.4,1.1,0.6 c0.3,0.2,7.2,6.3,7.9,7.1c0.8,0.8,0.7,1.4,0.7,1.4L17.5,36.8z" style="fill: rgb(213, 214, 215); opacity: 0.6143;"/>
      <path class="st45" d="M17.5,36.8c0,0,0.1-0.6,1.1-1.2c1-0.5,9.4-4.1,9.8-4.2c0.3-0.1,1-0.3,1.2-0.2c0.2,0,0.8,0.4,1.1,0.6 c0.3,0.2,7.2,6.3,7.9,7.1c0.8,0.8,0.7,1.4,0.7,1.4L17.5,36.8z" style="fill: rgb(212, 213, 214); opacity: 0.6286;"/>
      <path class="st46" d="M17.5,36.8c0,0,0.1-0.6,1.1-1.2c1-0.5,9.4-4.1,9.8-4.2c0.3-0.1,1-0.3,1.2-0.2c0.2,0,0.8,0.4,1.1,0.6 c0.3,0.2,7.2,6.3,7.9,7.1c0.8,0.8,0.7,1.4,0.7,1.4L17.5,36.8z" style="fill: rgb(211, 212, 213); opacity: 0.6429;"/>
      <path class="st47" d="M17.5,36.8c0,0,0.1-0.6,1.1-1.1c1-0.5,9.4-4.1,9.8-4.2c0.3-0.1,1-0.3,1.2-0.2c0.2,0,0.8,0.4,1.1,0.6 c0.3,0.2,7.2,6.3,7.9,7.1c0.8,0.8,0.7,1.4,0.7,1.4L17.5,36.8z" style="fill: rgb(210, 211, 212); opacity: 0.6571;"/>
      <path class="st48" d="M17.5,36.8c0,0,0.1-0.6,1.1-1.1c1-0.5,9.4-4.1,9.8-4.2c0.3-0.1,1-0.3,1.2-0.2c0.2,0,0.8,0.4,1.1,0.6 c0.3,0.2,7.2,6.3,7.9,7.1c0.8,0.8,0.7,1.4,0.7,1.4L17.5,36.8z" style="fill: rgb(209, 210, 211); opacity: 0.6714;"/>
      <path class="st49" d="M17.5,36.8c0,0,0.1-0.6,1.1-1.1c1-0.5,9.4-4.1,9.8-4.2c0.3-0.1,1-0.3,1.2-0.2c0.2,0,0.8,0.4,1.1,0.6 c0.3,0.2,7.2,6.3,7.9,7.1c0.8,0.8,0.7,1.4,0.7,1.4L17.5,36.8z" style="fill: rgb(208, 209, 210); opacity: 0.6857;"/>
      <path class="st50" d="M17.5,36.8c0,0,0.1-0.6,1.1-1.1c1-0.5,9.4-4.1,9.8-4.2c0.3-0.1,1-0.3,1.2-0.2c0.2,0,0.8,0.4,1.1,0.6 c0.3,0.2,7.2,6.3,7.9,7.1c0.8,0.8,0.7,1.4,0.7,1.4L17.5,36.8z" style="fill: rgb(207, 208, 209); opacity: 0.7;"/>
      <path class="st51" d="M17.5,36.8c0,0,0.1-0.6,1.1-1.1c1-0.5,9.4-4.1,9.8-4.2c0.3-0.1,1-0.3,1.2-0.2c0.2,0,0.8,0.4,1.1,0.6 c0.3,0.2,7.2,6.3,7.9,7.1c0.8,0.8,0.7,1.3,0.7,1.3L17.5,36.8z" style="fill: rgb(206, 207, 209); opacity: 0.7143;"/>
      <path class="st52" d="M17.5,36.8c0,0,0.1-0.6,1.1-1.1c1-0.5,9.4-4.1,9.8-4.2c0.3-0.1,1-0.3,1.2-0.2c0.2,0,0.8,0.4,1.1,0.6 c0.3,0.2,7.2,6.3,7.9,7.1c0.8,0.8,0.7,1.3,0.7,1.3L17.5,36.8z" style="fill: rgb(205, 206, 208); opacity: 0.7286;"/>
      <path class="st53" d="M17.5,36.8c0,0,0.1-0.6,1.1-1.1c1-0.5,9.4-4.1,9.8-4.2c0.3-0.1,1-0.3,1.2-0.2c0.2,0,0.8,0.4,1.1,0.6 c0.3,0.2,7.2,6.3,7.9,7.1c0.8,0.8,0.7,1.3,0.7,1.3L17.5,36.8z" style="fill: rgb(204, 205, 207); opacity: 0.7429;"/>
      <path class="st54" d="M17.5,36.8c0,0,0.1-0.6,1.1-1.1c1-0.5,9.4-4.1,9.8-4.2c0.3-0.1,1-0.3,1.2-0.2c0.2,0,0.8,0.4,1.1,0.6 c0.3,0.2,7.2,6.3,7.9,7.1c0.8,0.8,0.7,1.3,0.7,1.3L17.5,36.8z" style="fill: rgb(203, 204, 206); opacity: 0.7571;"/>
      <path class="st55" d="M17.5,36.8c0,0,0.1-0.6,1.1-1.1c1-0.5,9.4-4.1,9.8-4.2c0.3-0.1,1-0.3,1.2-0.2c0.2,0,0.8,0.4,1.1,0.6 c0.3,0.2,7.2,6.3,7.9,7.1c0.8,0.8,0.7,1.3,0.7,1.3L17.5,36.8z" style="fill: rgb(202, 203, 205); opacity: 0.7714;"/>
      <path class="st56" d="M17.5,36.8c0,0,0.1-0.6,1.1-1.1c1-0.5,9.4-4.1,9.8-4.2c0.3-0.1,1-0.3,1.2-0.2c0.2,0,0.8,0.4,1.1,0.6 c0.3,0.2,7.2,6.3,7.9,7.1c0.8,0.8,0.7,1.3,0.7,1.3L17.5,36.8z" style="fill: rgb(201, 202, 204); opacity: 0.7857;"/>
      <path class="st57" d="M17.5,36.8c0,0,0.1-0.5,1.1-1.1c1-0.5,9.4-4.1,9.8-4.2c0.3-0.1,1-0.3,1.2-0.2c0.2,0,0.8,0.4,1.1,0.6 c0.3,0.2,7.2,6.3,7.9,7.1c0.8,0.8,0.7,1.3,0.7,1.3L17.5,36.8z" style="fill: rgb(200, 201, 203); opacity: 0.8;"/>
      <path class="st58" d="M17.5,36.8c0,0,0.1-0.5,1.1-1.1c1-0.5,9.4-4.1,9.8-4.2c0.3-0.1,1-0.3,1.2-0.2c0.2,0,0.8,0.4,1.1,0.6 c0.3,0.2,7.2,6.3,7.9,7.1c0.8,0.8,0.7,1.3,0.7,1.3L17.5,36.8z" style="fill: rgb(199, 200, 202); opacity: 0.8143;"/>
      <path class="st59" d="M17.5,36.8c0,0,0.1-0.5,1.1-1.1c1-0.5,9.4-4.1,9.8-4.2c0.3-0.1,1-0.3,1.2-0.2c0.2,0,0.8,0.4,1.1,0.6 c0.3,0.2,7.2,6.3,7.9,7.1c0.8,0.8,0.7,1.3,0.7,1.3L17.5,36.8z" style="fill: rgb(198, 199, 201); opacity: 0.8286;"/>
      <path class="st60" d="M17.5,36.8c0,0,0.1-0.5,1.1-1.1c1-0.5,9.4-4.1,9.8-4.2c0.3-0.1,1-0.3,1.2-0.2c0.2,0,0.8,0.4,1.1,0.6 c0.3,0.2,7.2,6.3,7.9,7.1c0.8,0.8,0.7,1.3,0.7,1.3L17.5,36.8z" style="fill: rgb(197, 198, 200); opacity: 0.8429;"/>
      <path class="st61" d="M17.5,36.8c0,0,0.1-0.5,1.1-1.1c1-0.5,9.4-4.1,9.8-4.2c0.3-0.1,1-0.3,1.2-0.2c0.2,0,0.8,0.4,1.1,0.6 c0.3,0.2,7.2,6.3,7.9,7.1c0.8,0.8,0.7,1.3,0.7,1.3L17.5,36.8z" style="fill: rgb(196, 197, 199); opacity: 0.8571;"/>
      <path class="st62" d="M17.5,36.8c0,0,0.1-0.5,1.1-1c1-0.5,9.4-4.1,9.8-4.2c0.3-0.1,1-0.3,1.2-0.2c0.2,0,0.8,0.4,1.1,0.6 c0.3,0.2,7.2,6.3,7.9,7.1c0.8,0.8,0.7,1.3,0.7,1.3L17.5,36.8z" style="fill: rgb(195, 196, 198); opacity: 0.8714;"/>
      <path class="st63" d="M17.5,36.8c0,0,0.1-0.5,1.1-1c1-0.5,9.4-4.1,9.8-4.2c0.3-0.1,1-0.3,1.2-0.2c0.2,0,0.8,0.4,1.1,0.6 c0.3,0.2,7.2,6.3,7.9,7.1c0.8,0.8,0.7,1.3,0.7,1.3L17.5,36.8z" style="fill: rgb(194, 195, 197); opacity: 0.8857;"/>
      <path class="st64" d="M17.5,36.8c0,0,0.1-0.5,1.1-1c1-0.5,9.4-4.1,9.8-4.2c0.3-0.1,1-0.3,1.2-0.2c0.2,0,0.8,0.4,1.1,0.6 c0.3,0.2,7.2,6.3,7.9,7.1c0.8,0.8,0.7,1.3,0.7,1.3L17.5,36.8z" style="fill: rgb(193, 194, 196); opacity: 0.9;"/>
      <path class="st65" d="M17.5,36.8c0,0,0.1-0.5,1.1-1c1-0.5,9.4-4.1,9.8-4.2c0.3-0.1,1-0.3,1.2-0.2c0.2,0,0.8,0.4,1.1,0.6 c0.3,0.2,7.2,6.3,7.9,7.1c0.8,0.8,0.7,1.3,0.7,1.3L17.5,36.8z" style="fill: rgb(192, 194, 196); opacity: 0.9143;"/>
      <path class="st66" d="M17.5,36.8c0,0,0.1-0.5,1.1-1c1-0.5,9.4-4.1,9.8-4.2c0.3-0.1,1-0.3,1.2-0.2c0.2,0,0.8,0.4,1.1,0.6 c0.3,0.2,7.2,6.3,7.9,7.1c0.8,0.8,0.7,1.2,0.7,1.2L17.5,36.8z" style="fill: rgb(191, 193, 195); opacity: 0.9286;"/>
      <path class="st67" d="M17.5,36.8c0,0,0.1-0.5,1.1-1c1-0.5,9.4-4.1,9.8-4.2c0.3-0.1,1-0.3,1.2-0.2c0.2,0,0.8,0.4,1.1,0.6 c0.3,0.2,7.2,6.3,7.9,7.1c0.8,0.8,0.7,1.2,0.7,1.2L17.5,36.8z" style="fill: rgb(190, 192, 194); opacity: 0.9429;"/>
      <path class="st68" d="M17.5,36.8c0,0,0.1-0.5,1.1-1c1-0.5,9.4-4.1,9.8-4.2c0.3-0.1,1-0.3,1.2-0.2c0.2,0,0.8,0.4,1.1,0.6 c0.3,0.2,7.2,6.3,7.9,7.1c0.8,0.8,0.7,1.2,0.7,1.2L17.5,36.8z" style="fill: rgb(189, 191, 193); opacity: 0.9571;"/>
      <path class="st69" d="M17.5,36.8c0,0,0.1-0.5,1.1-1c1-0.5,9.4-4.1,9.8-4.2c0.3-0.1,1-0.3,1.2-0.2c0.2,0,0.8,0.4,1.1,0.6 c0.3,0.2,7.2,6.3,7.9,7.1c0.8,0.8,0.7,1.2,0.7,1.2L17.5,36.8z" style="fill: rgb(188, 190, 192); opacity: 0.9714;"/>
      <path class="st70" d="M17.5,36.8c0,0,0.1-0.5,1.1-1c1-0.5,9.4-4.1,9.8-4.2c0.3-0.1,1-0.3,1.2-0.2c0.2,0,0.8,0.4,1.1,0.6 c0.3,0.2,7.2,6.3,7.9,7.1c0.8,0.8,0.7,1.2,0.7,1.2L17.5,36.8z" style="fill: rgb(187, 189, 191); opacity: 0.9857;"/>
      <path class="st71" d="M17.5,36.8c0,0,0.1-0.5,1.1-1c1-0.5,9.4-4.1,9.8-4.2c0.3-0.1,1-0.3,1.2-0.2c0.2,0,0.8,0.4,1.1,0.6 c0.3,0.2,7.2,6.3,7.9,7.1c0.8,0.8,0.7,1.2,0.7,1.2L17.5,36.8z" style="fill: rgb(176, 176, 176);"/>
    </g>
    <linearGradient id="bottom-env_1_" gradientUnits="userSpaceOnUse" x1="129.9663" y1="-235.2755" x2="129.9663" y2="-255.3891" gradientTransform="matrix(0.987 0.1606 0.1606 -0.987 -58.9687 -233.9993)">
      <stop offset="0" style="stop-color:#D5D5D0"/>
      <stop offset="0.1161" style="stop-color:#E0E0DA"/>
      <stop offset="0.3441" style="stop-color:#EFEFE7"/>
      <stop offset="0.6097" style="stop-color:#F8F8EF"/>
      <stop offset="1" style="stop-color:#FBFBF1"/>
    </linearGradient>
    <path id="bottom-env" class="st72" d="M17.4,37.2c0,0,0.2-0.9,1.1-1.4c1-0.5,9.4-4.1,9.8-4.2c0.3-0.1,0.8-0.3,1.2-0.2 s0.8,0.4,1.1,0.6c0.3,0.2,7.2,6.3,7.9,7.1c0.8,0.8,0.6,1.7,0.6,1.7L17.4,37.2z" style="fill: url(#bottom-env_1_);"/>
    <g id="upper-shadow">
      <path class="st1" d="M41.3,27.3c0,0-0.2,1.5-1.1,2.1c-1,0.6-9.4,4.2-9.8,4.3c-0.3,0.1-1,0.3-1.2,0.3c-0.2,0-0.8-0.4-1.1-0.6 c-0.3-0.3-7.2-6.3-7.9-7.2c-0.7-0.9-0.6-2.4-0.6-2.4L41.3,27.3z" style="fill: rgb(255, 255, 255); opacity: 0;"/>
      <path class="st2" d="M41.3,27.3c0,0-0.2,1.5-1.1,2.1c-1,0.6-9.4,4.2-9.8,4.3c-0.3,0.1-1,0.3-1.2,0.3c-0.2,0-0.8-0.4-1.1-0.6 c-0.3-0.3-7.2-6.3-7.9-7.2c-0.7-0.9-0.6-2.4-0.6-2.4L41.3,27.3z" style="fill: rgb(254, 254, 254); opacity: 0.0142857;"/>
      <path class="st3" d="M41.3,27.3c0,0-0.1,1.5-1.1,2.1c-1,0.6-9.4,4.2-9.8,4.3c-0.3,0.1-1,0.3-1.2,0.3c-0.2,0-0.8-0.4-1.1-0.6 c-0.3-0.3-7.2-6.3-7.9-7.2c-0.7-0.9-0.6-2.4-0.6-2.4L41.3,27.3z" style="fill: rgb(253, 253, 253); opacity: 0.0285714;"/>
      <path class="st4" d="M41.3,27.3c0,0-0.1,1.5-1.1,2.1c-1,0.6-9.4,4.2-9.8,4.3c-0.3,0.1-1,0.3-1.2,0.3c-0.2,0-0.8-0.4-1.1-0.6 c-0.3-0.3-7.2-6.3-7.9-7.2c-0.7-0.9-0.6-2.3-0.6-2.3L41.3,27.3z" style="fill: rgb(252, 252, 252); opacity: 0.0428571;"/>
      <path class="st5" d="M41.3,27.3c0,0-0.1,1.5-1.1,2c-1,0.6-9.4,4.2-9.8,4.3c-0.3,0.1-1,0.3-1.2,0.3c-0.2,0-0.8-0.4-1.1-0.6 c-0.3-0.3-7.2-6.3-7.9-7.2c-0.7-0.9-0.6-2.3-0.6-2.3L41.3,27.3z" style="fill: rgb(251, 251, 251); opacity: 0.0571429;"/>
      <path class="st6" d="M41.3,27.3c0,0-0.1,1.4-1.1,2c-1,0.6-9.4,4.2-9.8,4.3c-0.3,0.1-1,0.3-1.2,0.3c-0.2,0-0.8-0.4-1.1-0.6 c-0.3-0.3-7.2-6.3-7.9-7.2c-0.7-0.9-0.6-2.3-0.6-2.3L41.3,27.3z" style="fill: rgb(250, 250, 250); opacity: 0.0714286;"/>
      <path class="st7" d="M41.3,27.3c0,0-0.1,1.4-1.1,2c-1,0.6-9.4,4.2-9.8,4.3c-0.3,0.1-1,0.3-1.2,0.3c-0.2,0-0.8-0.4-1.1-0.6 c-0.3-0.3-7.2-6.3-7.9-7.2c-0.7-0.9-0.6-2.3-0.6-2.3L41.3,27.3z" style="fill: rgb(249, 249, 249); opacity: 0.0857143;"/>
      <path class="st8" d="M41.3,27.3c0,0-0.1,1.4-1.1,2c-1,0.6-9.4,4.2-9.8,4.3c-0.3,0.1-1,0.3-1.2,0.3c-0.2,0-0.8-0.4-1.1-0.6 c-0.3-0.3-7.2-6.3-7.9-7.2c-0.7-0.9-0.6-2.3-0.6-2.3L41.3,27.3z" style="fill: rgb(248, 248, 248); opacity: 0.1;"/>
      <path class="st9" d="M41.3,27.3c0,0-0.1,1.4-1.1,2c-1,0.6-9.4,4.2-9.8,4.3c-0.3,0.1-1,0.3-1.2,0.3c-0.2,0-0.8-0.4-1.1-0.6 c-0.3-0.3-7.2-6.3-7.9-7.2c-0.7-0.9-0.6-2.3-0.6-2.3L41.3,27.3z" style="fill: rgb(247, 247, 248); opacity: 0.1143;"/>
      <path class="st10" d="M41.3,27.3c0,0-0.1,1.4-1.1,2c-1,0.6-9.4,4.2-9.8,4.3c-0.3,0.1-1,0.3-1.2,0.3c-0.2,0-0.8-0.4-1.1-0.6 c-0.3-0.3-7.2-6.3-7.9-7.2c-0.7-0.9-0.6-2.2-0.6-2.2L41.3,27.3z" style="fill: rgb(246, 246, 247); opacity: 0.1286;"/>
      <path class="st11" d="M41.3,27.3c0,0-0.1,1.4-1.1,1.9c-1,0.6-9.4,4.2-9.8,4.3c-0.3,0.1-1,0.3-1.2,0.3c-0.2,0-0.8-0.4-1.1-0.6 c-0.3-0.3-7.2-6.3-7.9-7.2c-0.7-0.9-0.6-2.2-0.6-2.2L41.3,27.3z" style="fill: rgb(245, 245, 246); opacity: 0.1429;"/>
      <path class="st12" d="M41.3,27.3c0,0-0.1,1.3-1.1,1.9c-1,0.6-9.4,4.2-9.8,4.3c-0.3,0.1-1,0.3-1.2,0.3c-0.2,0-0.8-0.4-1.1-0.6 c-0.3-0.3-7.2-6.3-7.9-7.2c-0.7-0.9-0.6-2.2-0.6-2.2L41.3,27.3z" style="fill: rgb(244, 244, 245); opacity: 0.1571;"/>
      <path class="st13" d="M41.3,27.3c0,0-0.1,1.3-1.1,1.9c-1,0.6-9.4,4.2-9.8,4.3c-0.3,0.1-1,0.3-1.2,0.3c-0.2,0-0.8-0.4-1.1-0.6 c-0.3-0.3-7.2-6.3-7.9-7.2c-0.7-0.9-0.6-2.2-0.6-2.2L41.3,27.3z" style="fill: rgb(243, 243, 244); opacity: 0.1714;"/>
      <path class="st14" d="M41.3,27.3c0,0-0.1,1.3-1.1,1.9c-1,0.6-9.4,4.2-9.8,4.3c-0.3,0.1-1,0.3-1.2,0.3c-0.2,0-0.8-0.4-1.1-0.6 c-0.3-0.3-7.2-6.3-7.9-7.2c-0.7-0.9-0.6-2.2-0.6-2.2L41.3,27.3z" style="fill: rgb(242, 243, 243); opacity: 0.1857;"/>
      <path class="st15" d="M41.3,27.3c0,0-0.1,1.3-1.1,1.9c-1,0.6-9.4,4.2-9.8,4.3c-0.3,0.1-1,0.3-1.2,0.3c-0.2,0-0.8-0.4-1.1-0.6 c-0.3-0.3-7.2-6.3-7.9-7.2c-0.7-0.9-0.6-2.2-0.6-2.2L41.3,27.3z" style="fill: rgb(241, 242, 242); opacity: 0.2;"/>
      <path class="st16" d="M41.3,27.3c0,0-0.1,1.3-1.1,1.9c-1,0.6-9.4,4.2-9.8,4.3c-0.3,0.1-1,0.3-1.2,0.3c-0.2,0-0.8-0.4-1.1-0.6 c-0.3-0.3-7.2-6.3-7.9-7.2c-0.7-0.9-0.6-2.2-0.6-2.2L41.3,27.3z" style="fill: rgb(240, 241, 241); opacity: 0.2143;"/>
      <path class="st17" d="M41.3,27.3c0,0-0.1,1.3-1.1,1.9c-1,0.6-9.4,4.2-9.8,4.3c-0.3,0.1-1,0.3-1.2,0.3c-0.2,0-0.8-0.4-1.1-0.6 c-0.3-0.3-7.2-6.3-7.9-7.2c-0.7-0.9-0.6-2.1-0.6-2.1L41.3,27.3z" style="fill: rgb(239, 240, 240); opacity: 0.2286;"/>
      <path class="st18" d="M41.3,27.3c0,0-0.1,1.3-1.1,1.8c-1,0.6-9.4,4.2-9.8,4.3c-0.3,0.1-1,0.3-1.2,0.3c-0.2,0-0.8-0.4-1.1-0.6 c-0.3-0.3-7.2-6.3-7.9-7.2c-0.7-0.9-0.6-2.1-0.6-2.1L41.3,27.3z" style="fill: rgb(238, 239, 239); opacity: 0.2429;"/>
      <path class="st19" d="M41.3,27.3c0,0-0.1,1.2-1.1,1.8c-1,0.6-9.4,4.2-9.8,4.3c-0.3,0.1-1,0.3-1.2,0.3c-0.2,0-0.8-0.4-1.1-0.6 c-0.3-0.3-7.2-6.3-7.9-7.2c-0.7-0.9-0.6-2.1-0.6-2.1L41.3,27.3z" style="fill: rgb(237, 238, 238); opacity: 0.2571;"/>
      <path class="st20" d="M41.3,27.3c0,0-0.1,1.2-1.1,1.8c-1,0.6-9.4,4.2-9.8,4.3c-0.3,0.1-1,0.3-1.2,0.2c-0.2,0-0.8-0.4-1.1-0.6 c-0.3-0.3-7.2-6.3-7.9-7.2c-0.7-0.9-0.6-2.1-0.6-2.1L41.3,27.3z" style="fill: rgb(236, 237, 237); opacity: 0.2714;"/>
      <path class="st21" d="M41.3,27.3c0,0-0.1,1.2-1.1,1.8c-1,0.6-9.4,4.2-9.8,4.3c-0.3,0.1-1,0.3-1.2,0.2c-0.2,0-0.8-0.4-1.1-0.6 c-0.3-0.3-7.2-6.3-7.9-7.2c-0.7-0.9-0.6-2.1-0.6-2.1L41.3,27.3z" style="fill: rgb(235, 236, 236); opacity: 0.2857;"/>
      <path class="st22" d="M41.3,27.3c0,0-0.1,1.2-1.1,1.8c-1,0.6-9.4,4.2-9.8,4.3c-0.3,0.1-1,0.3-1.2,0.2c-0.2,0-0.8-0.4-1.1-0.6 c-0.3-0.3-7.2-6.3-7.9-7.2c-0.7-0.9-0.6-2.1-0.6-2.1L41.3,27.3z" style="fill: rgb(234, 235, 235); opacity: 0.3;"/>
      <path class="st23" d="M41.3,27.3c0,0-0.1,1.2-1.1,1.8c-1,0.6-9.4,4.2-9.8,4.3c-0.3,0.1-1,0.3-1.2,0.2c-0.2,0-0.8-0.4-1.1-0.6 c-0.3-0.3-7.2-6.3-7.9-7.2c-0.7-0.9-0.6-2-0.6-2L41.3,27.3z" style="fill: rgb(233, 234, 235); opacity: 0.3143;"/>
      <path class="st24" d="M41.3,27.3c0,0-0.1,1.2-1.1,1.7c-1,0.6-9.4,4.2-9.8,4.3c-0.3,0.1-1,0.3-1.2,0.2c-0.2,0-0.8-0.4-1.1-0.6 c-0.3-0.3-7.2-6.3-7.9-7.2c-0.7-0.9-0.6-2-0.6-2L41.3,27.3z" style="fill: rgb(232, 233, 234); opacity: 0.3286;"/>
      <path class="st25" d="M41.3,27.3c0,0-0.1,1.2-1.1,1.7c-1,0.6-9.4,4.2-9.8,4.3c-0.3,0.1-1,0.3-1.2,0.2c-0.2,0-0.8-0.4-1.1-0.6 c-0.3-0.3-7.2-6.3-7.9-7.2c-0.7-0.9-0.6-2-0.6-2L41.3,27.3z" style="fill: rgb(231, 232, 233); opacity: 0.3429;"/>
      <path class="st26" d="M41.3,27.3c0,0-0.1,1.1-1.1,1.7c-1,0.6-9.4,4.2-9.8,4.3c-0.3,0.1-1,0.3-1.2,0.2c-0.2,0-0.8-0.4-1.1-0.6 c-0.3-0.3-7.2-6.3-7.9-7.2c-0.7-0.9-0.6-2-0.6-2L41.3,27.3z" style="fill: rgb(230, 231, 232); opacity: 0.3571;"/>
      <path class="st27" d="M41.3,27.3c0,0-0.1,1.1-1.1,1.7c-1,0.6-9.4,4.2-9.8,4.3c-0.3,0.1-1,0.3-1.2,0.2c-0.2,0-0.8-0.4-1.1-0.6 c-0.3-0.3-7.2-6.3-7.9-7.2c-0.7-0.9-0.6-2-0.6-2L41.3,27.3z" style="fill: rgb(229, 230, 231); opacity: 0.3714;"/>
      <path class="st28" d="M41.3,27.3c0,0-0.1,1.1-1.1,1.7c-1,0.6-9.4,4.2-9.8,4.3c-0.3,0.1-1,0.3-1.2,0.2c-0.2,0-0.8-0.4-1.1-0.6 c-0.3-0.3-7.2-6.3-7.9-7.2c-0.7-0.9-0.6-2-0.6-2L41.3,27.3z" style="fill: rgb(228, 229, 230); opacity: 0.3857;"/>
      <path class="st29" d="M41.3,27.3c0,0-0.1,1.1-1.1,1.7c-1,0.6-9.4,4.2-9.8,4.3c-0.3,0.1-1,0.3-1.2,0.2c-0.2,0-0.8-0.4-1.1-0.6 c-0.3-0.3-7.2-6.3-7.9-7.2c-0.7-0.9-0.6-2-0.6-2L41.3,27.3z" style="fill: rgb(227, 228, 229); opacity: 0.4;"/>
      <path class="st30" d="M41.3,27.3c0,0-0.1,1.1-1.1,1.7c-1,0.6-9.4,4.2-9.8,4.3c-0.3,0.1-1,0.3-1.2,0.2c-0.2,0-0.8-0.4-1.1-0.6 c-0.3-0.3-7.2-6.3-7.9-7.2c-0.7-0.8-0.6-1.9-0.6-1.9L41.3,27.3z" style="fill: rgb(226, 227, 228); opacity: 0.4143;"/>
      <path class="st31" d="M41.3,27.3c0,0-0.1,1.1-1.1,1.6c-1,0.6-9.4,4.2-9.8,4.3c-0.3,0.1-1,0.3-1.2,0.2c-0.2,0-0.8-0.4-1.1-0.6 c-0.3-0.3-7.2-6.3-7.9-7.2c-0.7-0.8-0.6-1.9-0.6-1.9L41.3,27.3z" style="fill: rgb(225, 226, 227); opacity: 0.4286;"/>
      <path class="st32" d="M41.3,27.3c0,0-0.1,1.1-1.1,1.6c-1,0.6-9.4,4.1-9.8,4.3c-0.3,0.1-1,0.3-1.2,0.2c-0.2,0-0.8-0.4-1.1-0.6 c-0.3-0.3-7.2-6.3-7.9-7.2c-0.7-0.8-0.6-1.9-0.6-1.9L41.3,27.3z" style="fill: rgb(224, 225, 226); opacity: 0.4429;"/>
      <path class="st33" d="M41.3,27.3c0,0-0.1,1-1.1,1.6c-1,0.6-9.4,4.1-9.8,4.3c-0.3,0.1-1,0.3-1.2,0.2c-0.2,0-0.8-0.4-1.1-0.6 c-0.3-0.3-7.2-6.3-7.9-7.2c-0.7-0.8-0.6-1.9-0.6-1.9L41.3,27.3z" style="fill: rgb(223, 224, 225); opacity: 0.4571;"/>
      <path class="st34" d="M41.3,27.3c0,0-0.1,1-1.1,1.6c-1,0.6-9.4,4.1-9.8,4.3c-0.3,0.1-1,0.3-1.2,0.2c-0.2,0-0.8-0.4-1.1-0.6 c-0.3-0.3-7.2-6.3-7.9-7.2c-0.7-0.8-0.6-1.9-0.6-1.9L41.3,27.3z" style="fill: rgb(222, 223, 224); opacity: 0.4714;"/>
      <path class="st35" d="M41.3,27.3c0,0-0.1,1-1.1,1.6c-1,0.6-9.4,4.1-9.8,4.3c-0.3,0.1-1,0.3-1.2,0.2c-0.2,0-0.8-0.4-1.1-0.6 c-0.3-0.3-7.2-6.3-7.9-7.2c-0.7-0.8-0.6-1.9-0.6-1.9L41.3,27.3z" style="fill: rgb(221, 222, 223); opacity: 0.4857;"/>
      <path class="st36" d="M41.3,27.3c0,0-0.1,1-1.1,1.6c-1,0.6-9.4,4.1-9.8,4.3c-0.3,0.1-1,0.3-1.2,0.2c-0.2,0-0.8-0.4-1.1-0.6 c-0.3-0.3-7.2-6.3-7.9-7.2c-0.7-0.8-0.6-1.9-0.6-1.9L41.3,27.3z" style="fill: rgb(220, 221, 222); opacity: 0.5;"/>
      <path class="st37" d="M41.3,27.3c0,0-0.1,1-1.1,1.5c-1,0.6-9.4,4.1-9.8,4.3c-0.3,0.1-1,0.3-1.2,0.2c-0.2,0-0.8-0.4-1.1-0.6 c-0.3-0.3-7.2-6.3-7.9-7.2c-0.7-0.8-0.6-1.8-0.6-1.8L41.3,27.3z" style="fill: rgb(219, 220, 222); opacity: 0.5143;"/>
      <path class="st38" d="M41.3,27.3c0,0-0.1,1-1.1,1.5c-1,0.6-9.4,4.1-9.8,4.3c-0.3,0.1-1,0.3-1.2,0.2c-0.2,0-0.8-0.4-1.1-0.6 c-0.3-0.3-7.2-6.3-7.9-7.2c-0.7-0.8-0.6-1.8-0.6-1.8L41.3,27.3z" style="fill: rgb(218, 219, 221); opacity: 0.5286;"/>
      <path class="st39" d="M41.3,27.3c0,0-0.1,1-1.1,1.5c-1,0.6-9.4,4.1-9.8,4.3c-0.3,0.1-1,0.3-1.2,0.2c-0.2,0-0.8-0.4-1.1-0.6 c-0.3-0.2-7.2-6.3-7.9-7.2c-0.7-0.8-0.6-1.8-0.6-1.8L41.3,27.3z" style="fill: rgb(217, 218, 220); opacity: 0.5429;"/>
      <path class="st40" d="M41.3,27.3c0,0-0.1,0.9-1.1,1.5c-1,0.6-9.4,4.1-9.8,4.3c-0.3,0.1-1,0.3-1.2,0.2c-0.2,0-0.8-0.4-1.1-0.6 c-0.3-0.2-7.2-6.3-7.9-7.2c-0.7-0.8-0.6-1.8-0.6-1.8L41.3,27.3z" style="fill: rgb(216, 218, 219); opacity: 0.5571;"/>
      <path class="st41" d="M41.3,27.3c0,0-0.1,0.9-1.1,1.5c-1,0.6-9.4,4.1-9.8,4.3c-0.3,0.1-1,0.3-1.2,0.2c-0.2,0-0.8-0.4-1.1-0.6 c-0.3-0.2-7.2-6.3-7.9-7.2c-0.7-0.8-0.6-1.8-0.6-1.8L41.3,27.3z" style="fill: rgb(215, 217, 218); opacity: 0.5714;"/>
      <path class="st42" d="M41.3,27.3c0,0-0.1,0.9-1.1,1.5c-1,0.6-9.4,4.1-9.8,4.3c-0.3,0.1-1,0.3-1.2,0.2c-0.2,0-0.8-0.4-1.1-0.6 c-0.3-0.2-7.2-6.3-7.9-7.2c-0.7-0.8-0.6-1.8-0.6-1.8L41.3,27.3z" style="fill: rgb(214, 216, 217); opacity: 0.5857;"/>
      <path class="st43" d="M41.3,27.3c0,0-0.1,0.9-1.1,1.5c-1,0.6-9.4,4.1-9.8,4.3c-0.3,0.1-1,0.3-1.2,0.2c-0.2,0-0.8-0.4-1.1-0.6 c-0.3-0.2-7.2-6.3-7.9-7.2c-0.7-0.8-0.6-1.7-0.6-1.7L41.3,27.3z" style="fill: rgb(213, 215, 216); opacity: 0.6;"/>
      <path class="st44" d="M41.3,27.3c0,0-0.1,0.9-1.1,1.4c-1,0.6-9.4,4.1-9.8,4.3c-0.3,0.1-1,0.3-1.2,0.2c-0.2,0-0.8-0.4-1.1-0.6 c-0.3-0.2-7.2-6.3-7.9-7.2c-0.7-0.8-0.6-1.7-0.6-1.7L41.3,27.3z" style="fill: rgb(213, 214, 215); opacity: 0.6143;"/>
      <path class="st45" d="M41.3,27.3c0,0-0.1,0.9-1.1,1.4c-1,0.6-9.4,4.1-9.8,4.3c-0.3,0.1-1,0.3-1.2,0.2c-0.2,0-0.8-0.4-1.1-0.6 c-0.3-0.2-7.2-6.3-7.9-7.1c-0.7-0.8-0.6-1.7-0.6-1.7L41.3,27.3z" style="fill: rgb(212, 213, 214); opacity: 0.6286;"/>
      <path class="st46" d="M41.3,27.3c0,0-0.1,0.8-1.1,1.4c-1,0.6-9.4,4.1-9.8,4.3c-0.3,0.1-1,0.3-1.2,0.2c-0.2,0-0.8-0.4-1.1-0.6 c-0.3-0.2-7.2-6.3-7.9-7.1c-0.7-0.8-0.6-1.7-0.6-1.7L41.3,27.3z" style="fill: rgb(211, 212, 213); opacity: 0.6429;"/>
      <path class="st47" d="M41.3,27.3c0,0-0.1,0.8-1.1,1.4c-1,0.6-9.4,4.1-9.8,4.3c-0.3,0.1-1,0.3-1.2,0.2c-0.2,0-0.8-0.4-1.1-0.6 c-0.3-0.2-7.2-6.3-7.9-7.1c-0.7-0.8-0.6-1.7-0.6-1.7L41.3,27.3z" style="fill: rgb(210, 211, 212); opacity: 0.6571;"/>
      <path class="st48" d="M41.3,27.3c0,0-0.1,0.8-1.1,1.4c-1,0.6-9.4,4.1-9.8,4.3c-0.3,0.1-1,0.3-1.2,0.2c-0.2,0-0.8-0.4-1.1-0.6 c-0.3-0.2-7.2-6.3-7.9-7.1c-0.7-0.8-0.6-1.7-0.6-1.7L41.3,27.3z" style="fill: rgb(209, 210, 211); opacity: 0.6714;"/>
      <path class="st49" d="M41.3,27.2c0,0-0.1,0.8-1.1,1.4c-1,0.6-9.4,4.1-9.8,4.3c-0.3,0.1-1,0.3-1.2,0.2c-0.2,0-0.8-0.4-1.1-0.6 c-0.3-0.2-7.2-6.3-7.9-7.1c-0.7-0.8-0.6-1.7-0.6-1.7L41.3,27.2z" style="fill: rgb(208, 209, 210); opacity: 0.6857;"/>
      <path class="st50" d="M41.3,27.2c0,0-0.1,0.8-1.1,1.3c-1,0.6-9.4,4.1-9.8,4.3c-0.3,0.1-1,0.3-1.2,0.2c-0.2,0-0.8-0.4-1.1-0.6 c-0.3-0.2-7.2-6.3-7.9-7.1c-0.8-0.8-0.6-1.6-0.6-1.6L41.3,27.2z" style="fill: rgb(207, 208, 209); opacity: 0.7;"/>
      <path class="st51" d="M41.3,27.2c0,0-0.1,0.8-1.1,1.3c-1,0.6-9.4,4.1-9.8,4.3c-0.3,0.1-1,0.3-1.2,0.2c-0.2,0-0.8-0.4-1.1-0.6 c-0.3-0.2-7.2-6.3-7.9-7.1c-0.8-0.8-0.6-1.6-0.6-1.6L41.3,27.2z" style="fill: rgb(206, 207, 209); opacity: 0.7143;"/>
      <path class="st52" d="M41.3,27.2c0,0-0.1,0.8-1.1,1.3c-1,0.6-9.4,4.1-9.8,4.3c-0.3,0.1-1,0.3-1.2,0.2c-0.2,0-0.8-0.4-1.1-0.6 c-0.3-0.2-7.2-6.3-7.9-7.1c-0.8-0.8-0.6-1.6-0.6-1.6L41.3,27.2z" style="fill: rgb(205, 206, 208); opacity: 0.7286;"/>
      <path class="st53" d="M41.3,27.2c0,0-0.1,0.7-1.1,1.3c-1,0.5-9.4,4.1-9.8,4.3c-0.3,0.1-1,0.3-1.2,0.2c-0.2,0-0.8-0.4-1.1-0.6 c-0.3-0.2-7.2-6.3-7.9-7.1c-0.8-0.8-0.6-1.6-0.6-1.6L41.3,27.2z" style="fill: rgb(204, 205, 207); opacity: 0.7429;"/>
      <path class="st54" d="M41.3,27.2c0,0-0.1,0.7-1.1,1.3c-1,0.5-9.4,4.1-9.8,4.3c-0.3,0.1-1,0.3-1.2,0.2c-0.2,0-0.8-0.4-1.1-0.6 c-0.3-0.2-7.2-6.3-7.9-7.1c-0.8-0.8-0.6-1.6-0.6-1.6L41.3,27.2z" style="fill: rgb(203, 204, 206); opacity: 0.7571;"/>
      <path class="st55" d="M41.3,27.2c0,0-0.1,0.7-1.1,1.3c-1,0.5-9.4,4.1-9.8,4.3c-0.3,0.1-1,0.3-1.2,0.2c-0.2,0-0.8-0.4-1.1-0.6 c-0.3-0.2-7.2-6.3-7.9-7.1c-0.8-0.8-0.6-1.6-0.6-1.6L41.3,27.2z" style="fill: rgb(202, 203, 205); opacity: 0.7714;"/>
      <path class="st56" d="M41.3,27.2c0,0-0.1,0.7-1.1,1.2c-1,0.5-9.4,4.1-9.8,4.2c-0.3,0.1-1,0.3-1.2,0.2c-0.2,0-0.8-0.4-1.1-0.6 c-0.3-0.2-7.2-6.3-7.9-7.1c-0.8-0.8-0.6-1.5-0.6-1.5L41.3,27.2z" style="fill: rgb(201, 202, 204); opacity: 0.7857;"/>
      <path class="st57" d="M41.3,27.2c0,0-0.1,0.7-1.1,1.2c-1,0.5-9.4,4.1-9.8,4.2c-0.3,0.1-1,0.3-1.2,0.2c-0.2,0-0.8-0.4-1.1-0.6 c-0.3-0.2-7.2-6.3-7.9-7.1c-0.8-0.8-0.7-1.5-0.7-1.5L41.3,27.2z" style="fill: rgb(200, 201, 203); opacity: 0.8;"/>
      <path class="st58" d="M41.3,27.2c0,0-0.1,0.7-1.1,1.2c-1,0.5-9.4,4.1-9.8,4.2c-0.3,0.1-1,0.3-1.2,0.2c-0.2,0-0.8-0.4-1.1-0.6 c-0.3-0.2-7.2-6.3-7.9-7.1c-0.8-0.8-0.7-1.5-0.7-1.5L41.3,27.2z" style="fill: rgb(199, 200, 202); opacity: 0.8143;"/>
      <path class="st59" d="M41.3,27.2c0,0-0.1,0.7-1.1,1.2c-1,0.5-9.4,4.1-9.8,4.2c-0.3,0.1-1,0.3-1.2,0.2c-0.2,0-0.8-0.4-1.1-0.6 c-0.3-0.2-7.2-6.3-7.9-7.1c-0.8-0.8-0.7-1.5-0.7-1.5L41.3,27.2z" style="fill: rgb(198, 199, 201); opacity: 0.8286;"/>
      <path class="st60" d="M41.3,27.2c0,0-0.1,0.6-1.1,1.2c-1,0.5-9.4,4.1-9.8,4.2c-0.3,0.1-1,0.3-1.2,0.2c-0.2,0-0.8-0.4-1.1-0.6 C27.9,32,21,26,20.3,25.2c-0.8-0.8-0.7-1.5-0.7-1.5L41.3,27.2z" style="fill: rgb(197, 198, 200); opacity: 0.8429;"/>
      <path class="st61" d="M41.3,27.2c0,0-0.1,0.6-1.1,1.2c-1,0.5-9.4,4.1-9.8,4.2c-0.3,0.1-1,0.3-1.2,0.2c-0.2,0-0.8-0.4-1.1-0.6 C27.9,32,21,26,20.3,25.2c-0.8-0.8-0.7-1.5-0.7-1.5L41.3,27.2z" style="fill: rgb(196, 197, 199); opacity: 0.8571;"/>
      <path class="st62" d="M41.3,27.2c0,0-0.1,0.6-1.1,1.2c-1,0.5-9.4,4.1-9.8,4.2c-0.3,0.1-1,0.3-1.2,0.2c-0.2,0-0.8-0.4-1.1-0.6 C27.9,32,21,26,20.3,25.1c-0.8-0.8-0.7-1.5-0.7-1.5L41.3,27.2z" style="fill: rgb(195, 196, 198); opacity: 0.8714;"/>
      <path class="st63" d="M41.3,27.2c0,0-0.1,0.6-1.1,1.1c-1,0.5-9.4,4.1-9.8,4.2c-0.3,0.1-1,0.3-1.2,0.2c-0.2,0-0.8-0.4-1.1-0.6 c-0.3-0.2-7.2-6.3-7.9-7.1c-0.8-0.8-0.7-1.4-0.7-1.4L41.3,27.2z" style="fill: rgb(194, 195, 197); opacity: 0.8857;"/>
      <path class="st64" d="M41.3,27.2c0,0-0.1,0.6-1.1,1.1c-1,0.5-9.4,4.1-9.8,4.2c-0.3,0.1-1,0.3-1.2,0.2c-0.2,0-0.8-0.4-1.1-0.6 c-0.3-0.2-7.2-6.3-7.9-7.1c-0.8-0.8-0.7-1.4-0.7-1.4L41.3,27.2z" style="fill: rgb(193, 194, 196); opacity: 0.9;"/>
      <path class="st65" d="M41.3,27.2c0,0-0.1,0.6-1.1,1.1c-1,0.5-9.4,4.1-9.8,4.2c-0.3,0.1-1,0.3-1.2,0.2c-0.2,0-0.8-0.4-1.1-0.6 c-0.3-0.2-7.2-6.3-7.9-7.1c-0.8-0.8-0.7-1.4-0.7-1.4L41.3,27.2z" style="fill: rgb(192, 194, 196); opacity: 0.9143;"/>
      <path class="st66" d="M41.3,27.2c0,0-0.1,0.6-1.1,1.1c-1,0.5-9.4,4.1-9.8,4.2c-0.3,0.1-1,0.3-1.2,0.2c-0.2,0-0.8-0.4-1.1-0.6 c-0.3-0.2-7.2-6.3-7.9-7.1c-0.8-0.8-0.7-1.4-0.7-1.4L41.3,27.2z" style="fill: rgb(191, 193, 195); opacity: 0.9286;"/>
      <path class="st67" d="M41.3,27.2c0,0-0.1,0.5-1.1,1.1c-1,0.5-9.4,4.1-9.8,4.2c-0.3,0.1-1,0.3-1.2,0.2c-0.2,0-0.8-0.4-1.1-0.6 c-0.3-0.2-7.2-6.3-7.9-7.1c-0.8-0.8-0.7-1.4-0.7-1.4L41.3,27.2z" style="fill: rgb(190, 192, 194); opacity: 0.9429;"/>
      <path class="st68" d="M41.3,27.2c0,0-0.1,0.5-1.1,1.1c-1,0.5-9.4,4.1-9.8,4.2c-0.3,0.1-1,0.3-1.2,0.2c-0.2,0-0.8-0.4-1.1-0.6 c-0.3-0.2-7.2-6.3-7.9-7.1c-0.8-0.8-0.7-1.4-0.7-1.4L41.3,27.2z" style="fill: rgb(189, 191, 193); opacity: 0.9571;"/>
      <path class="st69" d="M41.3,27.2c0,0-0.1,0.5-1.1,1c-1,0.5-9.4,4.1-9.8,4.2c-0.3,0.1-1,0.3-1.2,0.2c-0.2,0-0.8-0.4-1.1-0.6 c-0.3-0.2-7.2-6.3-7.9-7.1c-0.8-0.8-0.7-1.4-0.7-1.4L41.3,27.2z" style="fill: rgb(188, 190, 192); opacity: 0.9714;"/>
      <path class="st70" d="M41.3,27.2c0,0-0.1,0.5-1.1,1c-1,0.5-9.4,4.1-9.8,4.2c-0.3,0.1-1,0.3-1.2,0.2c-0.2,0-0.8-0.4-1.1-0.6 c-0.3-0.2-7.2-6.3-7.9-7.1c-0.8-0.8-0.7-1.3-0.7-1.3L41.3,27.2z" style="fill: rgb(187, 189, 191); opacity: 0.9857;"/>
      <path class="st71" d="M41.3,27.2c0,0-0.1,0.5-1.1,1c-1,0.5-9.4,4.1-9.8,4.2c-0.3,0.1-1,0.3-1.2,0.2c-0.2,0-0.8-0.4-1.1-0.6 c-0.3-0.2-7.2-6.3-7.9-7.1c-0.8-0.8-0.7-1.3-0.7-1.3L41.3,27.2z" style="fill: rgb(176, 176, 176);"/>
    </g>
    <linearGradient id="upper-env_1_" gradientUnits="userSpaceOnUse" x1="-279.1934" y1="179.6486" x2="-279.1934" y2="159.5351" gradientTransform="matrix(-0.987 -0.1606 -0.1606 0.987 -219.4375 -177.2245)">
      <stop offset="0" style="stop-color:#D5D5D0"/>
      <stop offset="0.1161" style="stop-color:#E0E0DA"/>
      <stop offset="0.3441" style="stop-color:#EFEFE7"/>
      <stop offset="0.6097" style="stop-color:#F8F8EF"/>
      <stop offset="1" style="stop-color:#FBFBF1"/>
    </linearGradient>
    <path id="upper-env" class="st73" d="M41.4,26.8c0,0-0.1,0.9-1.1,1.4c-1,0.5-9.4,4.1-9.8,4.2c-0.3,0.1-0.8,0.3-1.2,0.2 c-0.4-0.1-0.8-0.4-1.1-0.6c-0.3-0.2-7.2-6.3-7.9-7.1c-0.8-0.8-0.6-1.7-0.6-1.7L41.4,26.8z" style="fill: url(#upper-env_1_);"/>
    <path id="yellow-env" class="st74" d="M40.3,26.7c-0.5,1.1-9.7,4.8-10.4,5c-0.7,0.2-1-0.2-1-0.2s-4.8-4.4-6.5-5.9 c-1.6-1.5-1.9-2.2-1.9-2.2s0,0,0,0l-0.9-0.1c0,0,0,0,0,0c0,0,0,0,0,0l-2.2,13.9c0.4-1.1,1.1-1.4,1.1-1.4l1.6-11c0,0,0-0.1-0.1-0.1 c0.1,0.1,0.1,0.2,0.2,0.2c0.8,0.8,7.6,6.9,7.9,7.1c0.3,0.2,0.7,0.5,1.1,0.6c0.4,0.1,0.9-0.1,1.2-0.2c0.4-0.1,8.8-3.7,9.8-4.2 c0.1-0.1,0.2-0.1,0.2-0.2c0,0,0,0,0,0L38.5,39c0,0,0.6,0.6,0.6,1.7l2.2-13.9L40.3,26.7z" style="fill: rgb(255, 204, 0);"/>
    <g>
      <path id="left-head" class="st74" d="M17.7,0C11.8,0,5.9,0.1,0,0.1c1.1,3.1,3.5,6.5,6.8,7.5c-2.9,7.9,3.6,16.3,12,15.5 c8-0.8,12.9-9.7,9.2-16.9C26,2.4,21.9,0,17.7,0z" style="fill: rgb(255, 204, 0);"/>
      <circle id="left-eye" class="st75" cx="17.5" cy="11.6" r="8.4" style="fill: rgb(255, 255, 255);"/>
      <circle id="not-wink" class="st76" cx="19.1" cy="12.5" r="3.4" style="fill: rgb(51, 51, 51);"/>
    </g>
    <path id="right-head" class="st74" d="M52.7,2.7c-2.5,0-5,0-7.5,0c-2.5,0-5.2-0.2-7.6,0.1c-5.1,0.5-8.9,5.2-8.3,10.3 c0.5,5,5.1,8.8,10.1,8.3c6.2-0.5,10.2-7.1,7.8-12.8c0.7,0,1.5-0.6,2-1C50.9,6.3,52,4.6,52.7,2.7z" style="fill: rgb(255, 204, 0);"/>
    <circle id="right-eye" class="st75" cx="39" cy="12" r="6.6" style="fill: rgb(255, 255, 255);"/>
    <path id="beak" class="st76" d="M29.3,12.4c0,0-2,3.9-4.9,5.9c0,0,2,6.9,4.9,8.9c3-2,4.9-8.9,4.9-8.9 C31.2,16.3,29.3,12.4,29.3,12.4z" style="fill: rgb(51, 51, 51);"/>
    <g>
      <g>
        <path class="st76" d="M35.6,13c0.5-0.1,1.9-0.3,3.6,0.4c0.1,0,0.2,0,0.3-0.1l0,0c0-0.1,0-0.2-0.1-0.3c-1.8-0.7-3.3-0.6-3.8-0.5 c-0.1,0-0.2,0.1-0.1,0.2l0,0C35.4,13,35.5,13.1,35.6,13z" style="fill: rgb(51, 51, 51);"/>
      </g>
      <g>
        <path class="st76" d="M35.1,12.5c2.8-1.7,6.6-0.8,7.5-0.6c0.1,0,0.2,0,0.3-0.2l0,0c0-0.1,0-0.3-0.2-0.3c-0.7-0.2-2.9-0.7-5.2-0.3 c-0.1,0-0.2-0.2-0.1-0.2c0.5-0.3,1.1-0.6,1.7-0.8c0.1,0,0.2-0.2,0.2-0.3v0c0-0.1-0.2-0.2-0.3-0.2c-2,0.6-3.7,1.9-4.2,2.4 c-0.1,0.1-0.1,0.2,0,0.3l0,0C34.9,12.6,35,12.6,35.1,12.5z" style="fill: rgb(51, 51, 51);"/>
      </g>
    </g>
    <g id="bs-text">
      <g>
        <g>
          <path class="st76" d="M69.6,21.8c0,4.5-2.1,6.7-5.7,6.7c-3.1,0-5.4-1.8-5.4-5.4V9.3c0-0.5,0.4-0.9,0.9-0.9 c0.5,0,0.9,0.4,0.9,0.9v7.7c0.6-0.9,2-1.8,3.8-1.8C67.6,15.1,69.6,17.2,69.6,21.8z M60.3,23c0,2.6,1.5,3.8,3.6,3.8 c2.5,0,3.9-1.6,3.9-5.1c0-3.4-1.4-5-3.9-5c-2.6,0-3.6,2.4-3.6,2.4V23z" style="fill: rgb(51, 51, 51);"/>
        </g>
        <g>
          <path class="st76" d="M72.2,11.6c0-0.8,0.4-1.1,1-1.1c0.7,0,1,0.3,1,1.1c0,0.7-0.4,1.1-1,1.1C72.6,12.7,72.2,12.3,72.2,11.6z M74.1,27.4c0,0.5-0.4,0.9-0.9,0.9s-0.9-0.4-0.9-0.9V16.2c0-0.5,0.4-0.9,0.9-0.9s0.9,0.4,0.9,0.9V27.4z" style="fill: rgb(51, 51, 51);"/>
        </g>
        <g>
          <path class="st76" d="M79.5,17.4c0.6-1.3,1.9-2.2,3.8-2.2c0.5,0,0.9,0.4,0.9,0.9c0,0.5-0.4,0.9-0.9,0.9c-2.5,0-3.8,1.8-3.8,4.3 v6.2c0,0.5-0.4,0.9-0.9,0.9c-0.5,0-0.9-0.4-0.9-0.9V16.2c0-0.5,0.4-0.9,0.9-0.9c0.5,0,0.9,0.4,0.9,0.9V17.4z" style="fill: rgb(51, 51, 51);"/>
        </g>
        <g>
          <path class="st76" d="M94.6,16.9V9.3c0-0.5,0.4-0.9,0.9-0.9c0.5,0,0.9,0.4,0.9,0.9V23c0,3.6-2.3,5.4-5.4,5.4 c-3.6,0-5.7-2.1-5.7-6.7c0-4.5,2-6.6,5.6-6.6C92.6,15.1,93.9,16,94.6,16.9z M94.6,19.2c0,0-1-2.4-3.6-2.4c-2.5,0-3.9,1.6-3.9,5 c0,3.5,1.4,5.1,3.9,5.1c2.1,0,3.6-1.2,3.6-3.8V19.2z" style="fill: rgb(51, 51, 51);"/>
        </g>
      </g>
      <g>
        <path class="st74" d="M101.4,18.5c0,2.9,7.3,1.8,7.3,6.2c0,2.5-2.1,3.6-4.7,3.6c-2.3,0-4-1.1-4.7-2c-0.1-0.2-0.2-0.3-0.2-0.5 c0-0.4,0.4-0.8,0.8-0.8c0.2,0,0.4,0.1,0.6,0.3c0.9,0.9,2,1.4,3.5,1.4c1.6,0,2.9-0.5,2.9-2c0-2.8-7.3-1.7-7.3-6.2 c0-2.3,1.9-3.3,4.2-3.3c1.9,0,3.3,0.6,4.2,1.8c0.1,0.1,0.2,0.3,0.2,0.5c0,0.4-0.4,0.8-0.8,0.8c-0.1,0-0.4,0-0.6-0.2 c-0.7-0.7-1.6-1.2-3-1.2C102.6,16.8,101.4,17.2,101.4,18.5z" style="fill: rgb(255, 204, 0);"/>
        <path class="st74" d="M116.5,15.1c4.4,0,5.3,3.5,5.3,5.4c0,0.8,0,1.8-1.1,1.8h-8.1c0,2.7,1.6,4.5,4.2,4.5c1.6,0,2.5-0.6,3.3-1.2 c0.2-0.1,0.3-0.2,0.5-0.2c0.4,0,0.8,0.4,0.8,0.8c0,0.3-0.1,0.5-0.3,0.6c-0.4,0.4-1.9,1.5-4.3,1.5c-3.7,0-6-2-6-6.7 C110.8,17.5,112.9,15.1,116.5,15.1z M116.5,16.7c-2.4,0-3.7,1.5-3.9,4h7.4C120,18.7,119.3,16.7,116.5,16.7z" style="fill: rgb(255, 204, 0);"/>
        <path class="st74" d="M135,20v7.4c0,0.5-0.4,0.9-0.9,0.9s-0.9-0.4-0.9-0.9v-7c0-2.2-0.6-3.7-3.3-3.7c-2.7,0-3.7,1.7-3.7,3.9v6.8 c0,0.5-0.4,0.9-0.9,0.9s-0.9-0.4-0.9-0.9V16.2c0-0.5,0.4-0.9,0.9-0.9s0.9,0.4,0.9,0.9v0.9c0.5-1.1,1.9-1.9,3.7-1.9 C134.2,15.1,135,17.7,135,20z" style="fill: rgb(255, 204, 0);"/>
        <path class="st74" d="M146.8,16.9V9.3c0-0.5,0.4-0.9,0.9-0.9c0.5,0,0.9,0.4,0.9,0.9V23c0,3.6-2.3,5.4-5.4,5.4 c-3.6,0-5.7-2.1-5.7-6.7c0-4.5,2-6.6,5.6-6.6C144.8,15.1,146.2,16,146.8,16.9z M146.8,19.2c0,0-1-2.4-3.6-2.4 c-2.5,0-3.9,1.6-3.9,5c0,3.5,1.4,5.1,3.9,5.1c2.1,0,3.6-1.2,3.6-3.8V19.2z" style="fill: rgb(255, 204, 0);"/>
      </g>
    </g>
  </g>
</svg>