<?xml version="1.0" encoding="utf-8"?>
<!-- Generator: Adobe Illustrator 21.0.0, SVG Export Plug-In . SVG Version: 6.00 Build 0)  -->
<svg version="1.1" id="Layer_1" xmlns="http://www.w3.org/2000/svg" xmlns:xlink="http://www.w3.org/1999/xlink" x="0px" y="0px"
	 viewBox="0 0 148.6 40.9" style="enable-background:new 0 0 148.6 40.9;" xml:space="preserve">
<style type="text/css">
	.st0{fill:url(#center-env_1_);}
	.st1{opacity:0;fill:#FFFFFF;}
	.st2{opacity:1.428571e-02;fill:#FEFEFE;}
	.st3{opacity:2.857143e-02;fill:#FDFDFD;}
	.st4{opacity:4.285714e-02;fill:#FCFCFC;}
	.st5{opacity:5.714286e-02;fill:#FBFBFB;}
	.st6{opacity:7.142857e-02;fill:#FAFAFA;}
	.st7{opacity:8.571429e-02;fill:#F9F9F9;}
	.st8{opacity:0.1;fill:#F8F8F8;}
	.st9{opacity:0.1143;fill:#F7F7F8;}
	.st10{opacity:0.1286;fill:#F6F6F7;}
	.st11{opacity:0.1429;fill:#F5F5F6;}
	.st12{opacity:0.1571;fill:#F4F4F5;}
	.st13{opacity:0.1714;fill:#F3F3F4;}
	.st14{opacity:0.1857;fill:#F2F3F3;}
	.st15{opacity:0.2;fill:#F1F2F2;}
	.st16{opacity:0.2143;fill:#F0F1F1;}
	.st17{opacity:0.2286;fill:#EFF0F0;}
	.st18{opacity:0.2429;fill:#EEEFEF;}
	.st19{opacity:0.2571;fill:#EDEEEE;}
	.st20{opacity:0.2714;fill:#ECEDED;}
	.st21{opacity:0.2857;fill:#EBECEC;}
	.st22{opacity:0.3;fill:#EAEBEB;}
	.st23{opacity:0.3143;fill:#E9EAEB;}
	.st24{opacity:0.3286;fill:#E8E9EA;}
	.st25{opacity:0.3429;fill:#E7E8E9;}
	.st26{opacity:0.3571;fill:#E6E7E8;}
	.st27{opacity:0.3714;fill:#E5E6E7;}
	.st28{opacity:0.3857;fill:#E4E5E6;}
	.st29{opacity:0.4;fill:#E3E4E5;}
	.st30{opacity:0.4143;fill:#E2E3E4;}
	.st31{opacity:0.4286;fill:#E1E2E3;}
	.st32{opacity:0.4429;fill:#E0E1E2;}
	.st33{opacity:0.4571;fill:#DFE0E1;}
	.st34{opacity:0.4714;fill:#DEDFE0;}
	.st35{opacity:0.4857;fill:#DDDEDF;}
	.st36{opacity:0.5;fill:#DCDDDE;}
	.st37{opacity:0.5143;fill:#DBDCDE;}
	.st38{opacity:0.5286;fill:#DADBDD;}
	.st39{opacity:0.5429;fill:#D9DADC;}
	.st40{opacity:0.5571;fill:#D8DADB;}
	.st41{opacity:0.5714;fill:#D7D9DA;}
	.st42{opacity:0.5857;fill:#D6D8D9;}
	.st43{opacity:0.6;fill:#D5D7D8;}
	.st44{opacity:0.6143;fill:#D5D6D7;}
	.st45{opacity:0.6286;fill:#D4D5D6;}
	.st46{opacity:0.6429;fill:#D3D4D5;}
	.st47{opacity:0.6571;fill:#D2D3D4;}
	.st48{opacity:0.6714;fill:#D1D2D3;}
	.st49{opacity:0.6857;fill:#D0D1D2;}
	.st50{opacity:0.7;fill:#CFD0D1;}
	.st51{opacity:0.7143;fill:#CECFD1;}
	.st52{opacity:0.7286;fill:#CDCED0;}
	.st53{opacity:0.7429;fill:#CCCDCF;}
	.st54{opacity:0.7571;fill:#CBCCCE;}
	.st55{opacity:0.7714;fill:#CACBCD;}
	.st56{opacity:0.7857;fill:#C9CACC;}
	.st57{opacity:0.8;fill:#C8C9CB;}
	.st58{opacity:0.8143;fill:#C7C8CA;}
	.st59{opacity:0.8286;fill:#C6C7C9;}
	.st60{opacity:0.8429;fill:#C5C6C8;}
	.st61{opacity:0.8571;fill:#C4C5C7;}
	.st62{opacity:0.8714;fill:#C3C4C6;}
	.st63{opacity:0.8857;fill:#C2C3C5;}
	.st64{opacity:0.9;fill:#C1C2C4;}
	.st65{opacity:0.9143;fill:#C0C2C4;}
	.st66{opacity:0.9286;fill:#BFC1C3;}
	.st67{opacity:0.9429;fill:#BEC0C2;}
	.st68{opacity:0.9571;fill:#BDBFC1;}
	.st69{opacity:0.9714;fill:#BCBEC0;}
	.st70{opacity:0.9857;fill:#BBBDBF;}
	.st71{fill:#B0B0B0;}
	.st72{fill:url(#bottom-env_1_);}
	.st73{fill:url(#upper-env_1_);}
	.st74{fill:#FFCC00;}
	.st75{fill:#FFFFFF;}
	.st76{fill:#333333;}
</style>
<g>
	
		<linearGradient id="center-env_1_" gradientUnits="userSpaceOnUse" x1="-279.1934" y1="-357.6718" x2="-279.1934" y2="-371.7192" gradientTransform="matrix(-0.987 -0.1606 0.1606 -0.987 -187.6198 -372.79)">
		<stop  offset="0" style="stop-color:#D5D5D0"/>
		<stop  offset="0.1161" style="stop-color:#E0E0DA"/>
		<stop  offset="0.3441" style="stop-color:#EFEFE7"/>
		<stop  offset="0.6097" style="stop-color:#F8F8EF"/>
		<stop  offset="1" style="stop-color:#FBFBF1"/>
	</linearGradient>
	<polygon id="center-env" class="st0" points="19.7,23.3 41.4,26.8 39.1,40.7 17.4,37.2 	"/>
	<g id="lower-shadow">
		<path class="st1" d="M17.5,36.8c0,0,0.1-0.9,1-1.5c1-0.5,9.4-4.1,9.8-4.2c0.3-0.1,1-0.3,1.2-0.2c0.2,0,0.8,0.4,1.1,0.6
			c0.3,0.2,7.2,6.3,7.9,7.1c0.8,0.8,0.6,1.7,0.6,1.7L17.5,36.8z"/>
		<path class="st2" d="M17.5,36.8c0,0,0.1-0.9,1-1.5c1-0.5,9.4-4.1,9.8-4.2c0.3-0.1,1-0.3,1.2-0.2c0.2,0,0.8,0.4,1.1,0.6
			c0.3,0.2,7.2,6.3,7.9,7.1c0.8,0.8,0.6,1.7,0.6,1.7L17.5,36.8z"/>
		<path class="st3" d="M17.5,36.8c0,0,0.1-0.9,1-1.5c1-0.5,9.4-4.1,9.8-4.2c0.3-0.1,1-0.3,1.2-0.2c0.2,0,0.8,0.4,1.1,0.6
			c0.3,0.2,7.2,6.3,7.9,7.1c0.8,0.8,0.6,1.7,0.6,1.7L17.5,36.8z"/>
		<path class="st4" d="M17.5,36.8c0,0,0.1-0.9,1-1.4c1-0.5,9.4-4.1,9.8-4.2c0.3-0.1,1-0.3,1.2-0.2c0.2,0,0.8,0.4,1.1,0.6
			c0.3,0.2,7.2,6.3,7.9,7.1c0.8,0.8,0.6,1.7,0.6,1.7L17.5,36.8z"/>
		<path class="st5" d="M17.5,36.8c0,0,0.1-0.9,1-1.4c1-0.5,9.4-4.1,9.8-4.2c0.3-0.1,1-0.3,1.2-0.2c0.2,0,0.8,0.4,1.1,0.6
			c0.3,0.2,7.2,6.3,7.9,7.1c0.8,0.8,0.6,1.7,0.6,1.7L17.5,36.8z"/>
		<path class="st6" d="M17.5,36.8c0,0,0.1-0.9,1-1.4c1-0.5,9.4-4.1,9.8-4.2c0.3-0.1,1-0.3,1.2-0.2c0.2,0,0.8,0.4,1.1,0.6
			c0.3,0.2,7.2,6.3,7.9,7.1c0.8,0.8,0.6,1.6,0.6,1.6L17.5,36.8z"/>
		<path class="st7" d="M17.5,36.8c0,0,0.1-0.9,1-1.4c1-0.5,9.4-4.1,9.8-4.2c0.3-0.1,1-0.3,1.2-0.2c0.2,0,0.8,0.4,1.1,0.6
			c0.3,0.2,7.2,6.3,7.9,7.1c0.8,0.8,0.6,1.6,0.6,1.6L17.5,36.8z"/>
		<path class="st8" d="M17.5,36.8c0,0,0.1-0.9,1-1.4c1-0.5,9.4-4.1,9.8-4.2c0.3-0.1,1-0.3,1.2-0.2c0.2,0,0.8,0.4,1.1,0.6
			c0.3,0.2,7.2,6.3,7.9,7.1c0.8,0.8,0.6,1.6,0.6,1.6L17.5,36.8z"/>
		<path class="st9" d="M17.5,36.8c0,0,0.1-0.9,1-1.4c1-0.5,9.4-4.1,9.8-4.2c0.3-0.1,1-0.3,1.2-0.2c0.2,0,0.8,0.4,1.1,0.6
			c0.3,0.2,7.2,6.3,7.9,7.1c0.8,0.8,0.6,1.6,0.6,1.6L17.5,36.8z"/>
		<path class="st10" d="M17.5,36.8c0,0,0.1-0.9,1-1.4c1-0.5,9.4-4.1,9.8-4.2c0.3-0.1,1-0.3,1.2-0.2c0.2,0,0.8,0.4,1.1,0.6
			c0.3,0.2,7.2,6.3,7.9,7.1c0.8,0.8,0.6,1.6,0.6,1.6L17.5,36.8z"/>
		<path class="st11" d="M17.5,36.8c0,0,0.1-0.9,1-1.4c1-0.5,9.4-4.1,9.8-4.2c0.3-0.1,1-0.3,1.2-0.2c0.2,0,0.8,0.4,1.1,0.6
			c0.3,0.2,7.2,6.3,7.9,7.1c0.8,0.8,0.6,1.6,0.6,1.6L17.5,36.8z"/>
		<path class="st12" d="M17.5,36.8c0,0,0.1-0.9,1-1.4c1-0.5,9.4-4.1,9.8-4.2c0.3-0.1,1-0.3,1.2-0.2c0.2,0,0.8,0.4,1.1,0.6
			c0.3,0.2,7.2,6.3,7.9,7.1c0.8,0.8,0.6,1.6,0.6,1.6L17.5,36.8z"/>
		<path class="st13" d="M17.5,36.8c0,0,0.1-0.8,1-1.4c1-0.5,9.4-4.1,9.8-4.2c0.3-0.1,1-0.3,1.2-0.2c0.2,0,0.8,0.4,1.1,0.6
			c0.3,0.2,7.2,6.3,7.9,7.1c0.8,0.8,0.6,1.6,0.6,1.6L17.5,36.8z"/>
		<path class="st14" d="M17.5,36.8c0,0,0.1-0.8,1-1.4c1-0.5,9.4-4.1,9.8-4.2c0.3-0.1,1-0.3,1.2-0.2c0.2,0,0.8,0.4,1.1,0.6
			c0.3,0.2,7.2,6.3,7.9,7.1c0.8,0.8,0.6,1.6,0.6,1.6L17.5,36.8z"/>
		<path class="st15" d="M17.5,36.8c0,0,0.1-0.8,1-1.4c1-0.5,9.4-4.1,9.8-4.2c0.3-0.1,1-0.3,1.2-0.2c0.2,0,0.8,0.4,1.1,0.6
			c0.3,0.2,7.2,6.3,7.9,7.1c0.8,0.8,0.6,1.6,0.6,1.6L17.5,36.8z"/>
		<path class="st16" d="M17.5,36.8c0,0,0.1-0.8,1-1.4c1-0.5,9.4-4.1,9.8-4.2c0.3-0.1,1-0.3,1.2-0.2c0.2,0,0.8,0.4,1.1,0.6
			c0.3,0.2,7.2,6.3,7.9,7.1c0.8,0.8,0.6,1.6,0.6,1.6L17.5,36.8z"/>
		<path class="st17" d="M17.5,36.8c0,0,0.1-0.8,1-1.4c1-0.5,9.4-4.1,9.8-4.2c0.3-0.1,1-0.3,1.2-0.2c0.2,0,0.8,0.4,1.1,0.6
			c0.3,0.2,7.2,6.3,7.9,7.1c0.8,0.8,0.6,1.6,0.6,1.6L17.5,36.8z"/>
		<path class="st18" d="M17.5,36.8c0,0,0.1-0.8,1-1.3c1-0.5,9.4-4.1,9.8-4.2c0.3-0.1,1-0.3,1.2-0.2c0.2,0,0.8,0.4,1.1,0.6
			c0.3,0.2,7.2,6.3,7.9,7.1c0.8,0.8,0.6,1.6,0.6,1.6L17.5,36.8z"/>
		<path class="st19" d="M17.5,36.8c0,0,0.1-0.8,1-1.3c1-0.5,9.4-4.1,9.8-4.2c0.3-0.1,1-0.3,1.2-0.2c0.2,0,0.8,0.4,1.1,0.6
			c0.3,0.2,7.2,6.3,7.9,7.1c0.8,0.8,0.6,1.6,0.6,1.6L17.5,36.8z"/>
		<path class="st20" d="M17.5,36.8c0,0,0.1-0.8,1-1.3c1-0.5,9.4-4.1,9.8-4.2c0.3-0.1,1-0.3,1.2-0.2c0.2,0,0.8,0.4,1.1,0.6
			c0.3,0.2,7.2,6.3,7.9,7.1c0.8,0.8,0.6,1.6,0.6,1.6L17.5,36.8z"/>
		<path class="st21" d="M17.5,36.8c0,0,0.1-0.8,1-1.3c1-0.5,9.4-4.1,9.8-4.2c0.3-0.1,1-0.3,1.2-0.2c0.2,0,0.8,0.4,1.1,0.6
			c0.3,0.2,7.2,6.3,7.9,7.1c0.8,0.8,0.6,1.5,0.6,1.5L17.5,36.8z"/>
		<path class="st22" d="M17.5,36.8c0,0,0.1-0.8,1-1.3c1-0.5,9.4-4.1,9.8-4.2c0.3-0.1,1-0.3,1.2-0.2c0.2,0,0.8,0.4,1.1,0.6
			c0.3,0.2,7.2,6.3,7.9,7.1c0.8,0.8,0.6,1.5,0.6,1.5L17.5,36.8z"/>
		<path class="st23" d="M17.5,36.8c0,0,0.1-0.8,1-1.3c1-0.5,9.4-4.1,9.8-4.2c0.3-0.1,1-0.3,1.2-0.2c0.2,0,0.8,0.4,1.1,0.6
			c0.3,0.2,7.2,6.3,7.9,7.1c0.8,0.8,0.6,1.5,0.6,1.5L17.5,36.8z"/>
		<path class="st24" d="M17.5,36.8c0,0,0.1-0.8,1-1.3c1-0.5,9.4-4.1,9.8-4.2c0.3-0.1,1-0.3,1.2-0.2c0.2,0,0.8,0.4,1.1,0.6
			c0.3,0.2,7.2,6.3,7.9,7.1c0.8,0.8,0.6,1.5,0.6,1.5L17.5,36.8z"/>
		<path class="st25" d="M17.5,36.8c0,0,0.1-0.8,1-1.3c1-0.5,9.4-4.1,9.8-4.2c0.3-0.1,1-0.3,1.2-0.2c0.2,0,0.8,0.4,1.1,0.6
			c0.3,0.2,7.2,6.3,7.9,7.1c0.8,0.8,0.6,1.5,0.6,1.5L17.5,36.8z"/>
		<path class="st26" d="M17.5,36.8c0,0,0.1-0.8,1-1.3c1-0.5,9.4-4.1,9.8-4.2c0.3-0.1,1-0.3,1.2-0.2c0.2,0,0.8,0.4,1.1,0.6
			c0.3,0.2,7.2,6.3,7.9,7.1c0.8,0.8,0.6,1.5,0.6,1.5L17.5,36.8z"/>
		<path class="st27" d="M17.5,36.8c0,0,0.1-0.8,1-1.3c1-0.5,9.4-4.1,9.8-4.2c0.3-0.1,1-0.3,1.2-0.2c0.2,0,0.8,0.4,1.1,0.6
			c0.3,0.2,7.2,6.3,7.9,7.1c0.8,0.8,0.6,1.5,0.6,1.5L17.5,36.8z"/>
		<path class="st28" d="M17.5,36.8c0,0,0.1-0.7,1-1.3c1-0.5,9.4-4.1,9.8-4.2c0.3-0.1,1-0.3,1.2-0.2c0.2,0,0.8,0.4,1.1,0.6
			c0.3,0.2,7.2,6.3,7.9,7.1c0.8,0.8,0.6,1.5,0.6,1.5L17.5,36.8z"/>
		<path class="st29" d="M17.5,36.8c0,0,0.1-0.7,1-1.3c1-0.5,9.4-4.1,9.8-4.2c0.3-0.1,1-0.3,1.2-0.2c0.2,0,0.8,0.4,1.1,0.6
			c0.3,0.2,7.2,6.3,7.9,7.1c0.8,0.8,0.6,1.5,0.6,1.5L17.5,36.8z"/>
		<path class="st30" d="M17.5,36.8c0,0,0.1-0.7,1-1.3c1-0.5,9.4-4.1,9.8-4.2c0.3-0.1,1-0.3,1.2-0.2c0.2,0,0.8,0.4,1.1,0.6
			c0.3,0.2,7.2,6.3,7.9,7.1c0.8,0.8,0.6,1.5,0.6,1.5L17.5,36.8z"/>
		<path class="st31" d="M17.5,36.8c0,0,0.1-0.7,1-1.3c1-0.5,9.4-4.1,9.8-4.2c0.3-0.1,1-0.3,1.2-0.2c0.2,0,0.8,0.4,1.1,0.6
			c0.3,0.2,7.2,6.3,7.9,7.1c0.8,0.8,0.6,1.5,0.6,1.5L17.5,36.8z"/>
		<path class="st32" d="M17.5,36.8c0,0,0.1-0.7,1-1.3c1-0.5,9.4-4.1,9.8-4.2c0.3-0.1,1-0.3,1.2-0.2c0.2,0,0.8,0.4,1.1,0.6
			c0.3,0.2,7.2,6.3,7.9,7.1c0.8,0.8,0.6,1.5,0.6,1.5L17.5,36.8z"/>
		<path class="st33" d="M17.5,36.8c0,0,0.1-0.7,1-1.2c1-0.5,9.4-4.1,9.8-4.2c0.3-0.1,1-0.3,1.2-0.2c0.2,0,0.8,0.4,1.1,0.6
			c0.3,0.2,7.2,6.3,7.9,7.1c0.8,0.8,0.6,1.5,0.6,1.5L17.5,36.8z"/>
		<path class="st34" d="M17.5,36.8c0,0,0.1-0.7,1-1.2c1-0.5,9.4-4.1,9.8-4.2c0.3-0.1,1-0.3,1.2-0.2c0.2,0,0.8,0.4,1.1,0.6
			c0.3,0.2,7.2,6.3,7.9,7.1c0.8,0.8,0.6,1.5,0.6,1.5L17.5,36.8z"/>
		<path class="st35" d="M17.5,36.8c0,0,0.1-0.7,1-1.2c1-0.5,9.4-4.1,9.8-4.2c0.3-0.1,1-0.3,1.2-0.2c0.2,0,0.8,0.4,1.1,0.6
			c0.3,0.2,7.2,6.3,7.9,7.1c0.8,0.8,0.6,1.5,0.6,1.5L17.5,36.8z"/>
		<path class="st36" d="M17.5,36.8c0,0,0.1-0.7,1-1.2c1-0.5,9.4-4.1,9.8-4.2c0.3-0.1,1-0.3,1.2-0.2c0.2,0,0.8,0.4,1.1,0.6
			c0.3,0.2,7.2,6.3,7.9,7.1c0.8,0.8,0.6,1.4,0.6,1.4L17.5,36.8z"/>
		<path class="st37" d="M17.5,36.8c0,0,0.1-0.7,1-1.2c1-0.5,9.4-4.1,9.8-4.2c0.3-0.1,1-0.3,1.2-0.2c0.2,0,0.8,0.4,1.1,0.6
			c0.3,0.2,7.2,6.3,7.9,7.1c0.8,0.8,0.7,1.4,0.7,1.4L17.5,36.8z"/>
		<path class="st38" d="M17.5,36.8c0,0,0.1-0.7,1-1.2c1-0.5,9.4-4.1,9.8-4.2c0.3-0.1,1-0.3,1.2-0.2c0.2,0,0.8,0.4,1.1,0.6
			c0.3,0.2,7.2,6.3,7.9,7.1c0.8,0.8,0.7,1.4,0.7,1.4L17.5,36.8z"/>
		<path class="st39" d="M17.5,36.8c0,0,0.1-0.7,1-1.2c1-0.5,9.4-4.1,9.8-4.2c0.3-0.1,1-0.3,1.2-0.2c0.2,0,0.8,0.4,1.1,0.6
			c0.3,0.2,7.2,6.3,7.9,7.1c0.8,0.8,0.7,1.4,0.7,1.4L17.5,36.8z"/>
		<path class="st40" d="M17.5,36.8c0,0,0.1-0.7,1-1.2c1-0.5,9.4-4.1,9.8-4.2c0.3-0.1,1-0.3,1.2-0.2c0.2,0,0.8,0.4,1.1,0.6
			c0.3,0.2,7.2,6.3,7.9,7.1c0.8,0.8,0.7,1.4,0.7,1.4L17.5,36.8z"/>
		<path class="st41" d="M17.5,36.8c0,0,0.1-0.7,1-1.2c1-0.5,9.4-4.1,9.8-4.2c0.3-0.1,1-0.3,1.2-0.2c0.2,0,0.8,0.4,1.1,0.6
			c0.3,0.2,7.2,6.3,7.9,7.1c0.8,0.8,0.7,1.4,0.7,1.4L17.5,36.8z"/>
		<path class="st42" d="M17.5,36.8c0,0,0.1-0.6,1.1-1.2c1-0.5,9.4-4.1,9.8-4.2c0.3-0.1,1-0.3,1.2-0.2c0.2,0,0.8,0.4,1.1,0.6
			c0.3,0.2,7.2,6.3,7.9,7.1c0.8,0.8,0.7,1.4,0.7,1.4L17.5,36.8z"/>
		<path class="st43" d="M17.5,36.8c0,0,0.1-0.6,1.1-1.2c1-0.5,9.4-4.1,9.8-4.2c0.3-0.1,1-0.3,1.2-0.2c0.2,0,0.8,0.4,1.1,0.6
			c0.3,0.2,7.2,6.3,7.9,7.1c0.8,0.8,0.7,1.4,0.7,1.4L17.5,36.8z"/>
		<path class="st44" d="M17.5,36.8c0,0,0.1-0.6,1.1-1.2c1-0.5,9.4-4.1,9.8-4.2c0.3-0.1,1-0.3,1.2-0.2c0.2,0,0.8,0.4,1.1,0.6
			c0.3,0.2,7.2,6.3,7.9,7.1c0.8,0.8,0.7,1.4,0.7,1.4L17.5,36.8z"/>
		<path class="st45" d="M17.5,36.8c0,0,0.1-0.6,1.1-1.2c1-0.5,9.4-4.1,9.8-4.2c0.3-0.1,1-0.3,1.2-0.2c0.2,0,0.8,0.4,1.1,0.6
			c0.3,0.2,7.2,6.3,7.9,7.1c0.8,0.8,0.7,1.4,0.7,1.4L17.5,36.8z"/>
		<path class="st46" d="M17.5,36.8c0,0,0.1-0.6,1.1-1.2c1-0.5,9.4-4.1,9.8-4.2c0.3-0.1,1-0.3,1.2-0.2c0.2,0,0.8,0.4,1.1,0.6
			c0.3,0.2,7.2,6.3,7.9,7.1c0.8,0.8,0.7,1.4,0.7,1.4L17.5,36.8z"/>
		<path class="st47" d="M17.5,36.8c0,0,0.1-0.6,1.1-1.1c1-0.5,9.4-4.1,9.8-4.2c0.3-0.1,1-0.3,1.2-0.2c0.2,0,0.8,0.4,1.1,0.6
			c0.3,0.2,7.2,6.3,7.9,7.1c0.8,0.8,0.7,1.4,0.7,1.4L17.5,36.8z"/>
		<path class="st48" d="M17.5,36.8c0,0,0.1-0.6,1.1-1.1c1-0.5,9.4-4.1,9.8-4.2c0.3-0.1,1-0.3,1.2-0.2c0.2,0,0.8,0.4,1.1,0.6
			c0.3,0.2,7.2,6.3,7.9,7.1c0.8,0.8,0.7,1.4,0.7,1.4L17.5,36.8z"/>
		<path class="st49" d="M17.5,36.8c0,0,0.1-0.6,1.1-1.1c1-0.5,9.4-4.1,9.8-4.2c0.3-0.1,1-0.3,1.2-0.2c0.2,0,0.8,0.4,1.1,0.6
			c0.3,0.2,7.2,6.3,7.9,7.1c0.8,0.8,0.7,1.4,0.7,1.4L17.5,36.8z"/>
		<path class="st50" d="M17.5,36.8c0,0,0.1-0.6,1.1-1.1c1-0.5,9.4-4.1,9.8-4.2c0.3-0.1,1-0.3,1.2-0.2c0.2,0,0.8,0.4,1.1,0.6
			c0.3,0.2,7.2,6.3,7.9,7.1c0.8,0.8,0.7,1.4,0.7,1.4L17.5,36.8z"/>
		<path class="st51" d="M17.5,36.8c0,0,0.1-0.6,1.1-1.1c1-0.5,9.4-4.1,9.8-4.2c0.3-0.1,1-0.3,1.2-0.2c0.2,0,0.8,0.4,1.1,0.6
			c0.3,0.2,7.2,6.3,7.9,7.1c0.8,0.8,0.7,1.3,0.7,1.3L17.5,36.8z"/>
		<path class="st52" d="M17.5,36.8c0,0,0.1-0.6,1.1-1.1c1-0.5,9.4-4.1,9.8-4.2c0.3-0.1,1-0.3,1.2-0.2c0.2,0,0.8,0.4,1.1,0.6
			c0.3,0.2,7.2,6.3,7.9,7.1c0.8,0.8,0.7,1.3,0.7,1.3L17.5,36.8z"/>
		<path class="st53" d="M17.5,36.8c0,0,0.1-0.6,1.1-1.1c1-0.5,9.4-4.1,9.8-4.2c0.3-0.1,1-0.3,1.2-0.2c0.2,0,0.8,0.4,1.1,0.6
			c0.3,0.2,7.2,6.3,7.9,7.1c0.8,0.8,0.7,1.3,0.7,1.3L17.5,36.8z"/>
		<path class="st54" d="M17.5,36.8c0,0,0.1-0.6,1.1-1.1c1-0.5,9.4-4.1,9.8-4.2c0.3-0.1,1-0.3,1.2-0.2c0.2,0,0.8,0.4,1.1,0.6
			c0.3,0.2,7.2,6.3,7.9,7.1c0.8,0.8,0.7,1.3,0.7,1.3L17.5,36.8z"/>
		<path class="st55" d="M17.5,36.8c0,0,0.1-0.6,1.1-1.1c1-0.5,9.4-4.1,9.8-4.2c0.3-0.1,1-0.3,1.2-0.2c0.2,0,0.8,0.4,1.1,0.6
			c0.3,0.2,7.2,6.3,7.9,7.1c0.8,0.8,0.7,1.3,0.7,1.3L17.5,36.8z"/>
		<path class="st56" d="M17.5,36.8c0,0,0.1-0.6,1.1-1.1c1-0.5,9.4-4.1,9.8-4.2c0.3-0.1,1-0.3,1.2-0.2c0.2,0,0.8,0.4,1.1,0.6
			c0.3,0.2,7.2,6.3,7.9,7.1c0.8,0.8,0.7,1.3,0.7,1.3L17.5,36.8z"/>
		<path class="st57" d="M17.5,36.8c0,0,0.1-0.5,1.1-1.1c1-0.5,9.4-4.1,9.8-4.2c0.3-0.1,1-0.3,1.2-0.2c0.2,0,0.8,0.4,1.1,0.6
			c0.3,0.2,7.2,6.3,7.9,7.1c0.8,0.8,0.7,1.3,0.7,1.3L17.5,36.8z"/>
		<path class="st58" d="M17.5,36.8c0,0,0.1-0.5,1.1-1.1c1-0.5,9.4-4.1,9.8-4.2c0.3-0.1,1-0.3,1.2-0.2c0.2,0,0.8,0.4,1.1,0.6
			c0.3,0.2,7.2,6.3,7.9,7.1c0.8,0.8,0.7,1.3,0.7,1.3L17.5,36.8z"/>
		<path class="st59" d="M17.5,36.8c0,0,0.1-0.5,1.1-1.1c1-0.5,9.4-4.1,9.8-4.2c0.3-0.1,1-0.3,1.2-0.2c0.2,0,0.8,0.4,1.1,0.6
			c0.3,0.2,7.2,6.3,7.9,7.1c0.8,0.8,0.7,1.3,0.7,1.3L17.5,36.8z"/>
		<path class="st60" d="M17.5,36.8c0,0,0.1-0.5,1.1-1.1c1-0.5,9.4-4.1,9.8-4.2c0.3-0.1,1-0.3,1.2-0.2c0.2,0,0.8,0.4,1.1,0.6
			c0.3,0.2,7.2,6.3,7.9,7.1c0.8,0.8,0.7,1.3,0.7,1.3L17.5,36.8z"/>
		<path class="st61" d="M17.5,36.8c0,0,0.1-0.5,1.1-1.1c1-0.5,9.4-4.1,9.8-4.2c0.3-0.1,1-0.3,1.2-0.2c0.2,0,0.8,0.4,1.1,0.6
			c0.3,0.2,7.2,6.3,7.9,7.1c0.8,0.8,0.7,1.3,0.7,1.3L17.5,36.8z"/>
		<path class="st62" d="M17.5,36.8c0,0,0.1-0.5,1.1-1c1-0.5,9.4-4.1,9.8-4.2c0.3-0.1,1-0.3,1.2-0.2c0.2,0,0.8,0.4,1.1,0.6
			c0.3,0.2,7.2,6.3,7.9,7.1c0.8,0.8,0.7,1.3,0.7,1.3L17.5,36.8z"/>
		<path class="st63" d="M17.5,36.8c0,0,0.1-0.5,1.1-1c1-0.5,9.4-4.1,9.8-4.2c0.3-0.1,1-0.3,1.2-0.2c0.2,0,0.8,0.4,1.1,0.6
			c0.3,0.2,7.2,6.3,7.9,7.1c0.8,0.8,0.7,1.3,0.7,1.3L17.5,36.8z"/>
		<path class="st64" d="M17.5,36.8c0,0,0.1-0.5,1.1-1c1-0.5,9.4-4.1,9.8-4.2c0.3-0.1,1-0.3,1.2-0.2c0.2,0,0.8,0.4,1.1,0.6
			c0.3,0.2,7.2,6.3,7.9,7.1c0.8,0.8,0.7,1.3,0.7,1.3L17.5,36.8z"/>
		<path class="st65" d="M17.5,36.8c0,0,0.1-0.5,1.1-1c1-0.5,9.4-4.1,9.8-4.2c0.3-0.1,1-0.3,1.2-0.2c0.2,0,0.8,0.4,1.1,0.6
			c0.3,0.2,7.2,6.3,7.9,7.1c0.8,0.8,0.7,1.3,0.7,1.3L17.5,36.8z"/>
		<path class="st66" d="M17.5,36.8c0,0,0.1-0.5,1.1-1c1-0.5,9.4-4.1,9.8-4.2c0.3-0.1,1-0.3,1.2-0.2c0.2,0,0.8,0.4,1.1,0.6
			c0.3,0.2,7.2,6.3,7.9,7.1c0.8,0.8,0.7,1.2,0.7,1.2L17.5,36.8z"/>
		<path class="st67" d="M17.5,36.8c0,0,0.1-0.5,1.1-1c1-0.5,9.4-4.1,9.8-4.2c0.3-0.1,1-0.3,1.2-0.2c0.2,0,0.8,0.4,1.1,0.6
			c0.3,0.2,7.2,6.3,7.9,7.1c0.8,0.8,0.7,1.2,0.7,1.2L17.5,36.8z"/>
		<path class="st68" d="M17.5,36.8c0,0,0.1-0.5,1.1-1c1-0.5,9.4-4.1,9.8-4.2c0.3-0.1,1-0.3,1.2-0.2c0.2,0,0.8,0.4,1.1,0.6
			c0.3,0.2,7.2,6.3,7.9,7.1c0.8,0.8,0.7,1.2,0.7,1.2L17.5,36.8z"/>
		<path class="st69" d="M17.5,36.8c0,0,0.1-0.5,1.1-1c1-0.5,9.4-4.1,9.8-4.2c0.3-0.1,1-0.3,1.2-0.2c0.2,0,0.8,0.4,1.1,0.6
			c0.3,0.2,7.2,6.3,7.9,7.1c0.8,0.8,0.7,1.2,0.7,1.2L17.5,36.8z"/>
		<path class="st70" d="M17.5,36.8c0,0,0.1-0.5,1.1-1c1-0.5,9.4-4.1,9.8-4.2c0.3-0.1,1-0.3,1.2-0.2c0.2,0,0.8,0.4,1.1,0.6
			c0.3,0.2,7.2,6.3,7.9,7.1c0.8,0.8,0.7,1.2,0.7,1.2L17.5,36.8z"/>
		<path class="st71" d="M17.5,36.8c0,0,0.1-0.5,1.1-1c1-0.5,9.4-4.1,9.8-4.2c0.3-0.1,1-0.3,1.2-0.2c0.2,0,0.8,0.4,1.1,0.6
			c0.3,0.2,7.2,6.3,7.9,7.1c0.8,0.8,0.7,1.2,0.7,1.2L17.5,36.8z"/>
	</g>
	
		<linearGradient id="bottom-env_1_" gradientUnits="userSpaceOnUse" x1="129.9663" y1="-235.2755" x2="129.9663" y2="-255.3891" gradientTransform="matrix(0.987 0.1606 0.1606 -0.987 -58.9687 -233.9993)">
		<stop  offset="0" style="stop-color:#D5D5D0"/>
		<stop  offset="0.1161" style="stop-color:#E0E0DA"/>
		<stop  offset="0.3441" style="stop-color:#EFEFE7"/>
		<stop  offset="0.6097" style="stop-color:#F8F8EF"/>
		<stop  offset="1" style="stop-color:#FBFBF1"/>
	</linearGradient>
	<path id="bottom-env" class="st72" d="M17.4,37.2c0,0,0.2-0.9,1.1-1.4c1-0.5,9.4-4.1,9.8-4.2c0.3-0.1,0.8-0.3,1.2-0.2
		s0.8,0.4,1.1,0.6c0.3,0.2,7.2,6.3,7.9,7.1c0.8,0.8,0.6,1.7,0.6,1.7L17.4,37.2z"/>
	<g id="upper-shadow">
		<path class="st1" d="M41.3,27.3c0,0-0.2,1.5-1.1,2.1c-1,0.6-9.4,4.2-9.8,4.3c-0.3,0.1-1,0.3-1.2,0.3c-0.2,0-0.8-0.4-1.1-0.6
			c-0.3-0.3-7.2-6.3-7.9-7.2c-0.7-0.9-0.6-2.4-0.6-2.4L41.3,27.3z"/>
		<path class="st2" d="M41.3,27.3c0,0-0.2,1.5-1.1,2.1c-1,0.6-9.4,4.2-9.8,4.3c-0.3,0.1-1,0.3-1.2,0.3c-0.2,0-0.8-0.4-1.1-0.6
			c-0.3-0.3-7.2-6.3-7.9-7.2c-0.7-0.9-0.6-2.4-0.6-2.4L41.3,27.3z"/>
		<path class="st3" d="M41.3,27.3c0,0-0.1,1.5-1.1,2.1c-1,0.6-9.4,4.2-9.8,4.3c-0.3,0.1-1,0.3-1.2,0.3c-0.2,0-0.8-0.4-1.1-0.6
			c-0.3-0.3-7.2-6.3-7.9-7.2c-0.7-0.9-0.6-2.4-0.6-2.4L41.3,27.3z"/>
		<path class="st4" d="M41.3,27.3c0,0-0.1,1.5-1.1,2.1c-1,0.6-9.4,4.2-9.8,4.3c-0.3,0.1-1,0.3-1.2,0.3c-0.2,0-0.8-0.4-1.1-0.6
			c-0.3-0.3-7.2-6.3-7.9-7.2c-0.7-0.9-0.6-2.3-0.6-2.3L41.3,27.3z"/>
		<path class="st5" d="M41.3,27.3c0,0-0.1,1.5-1.1,2c-1,0.6-9.4,4.2-9.8,4.3c-0.3,0.1-1,0.3-1.2,0.3c-0.2,0-0.8-0.4-1.1-0.6
			c-0.3-0.3-7.2-6.3-7.9-7.2c-0.7-0.9-0.6-2.3-0.6-2.3L41.3,27.3z"/>
		<path class="st6" d="M41.3,27.3c0,0-0.1,1.4-1.1,2c-1,0.6-9.4,4.2-9.8,4.3c-0.3,0.1-1,0.3-1.2,0.3c-0.2,0-0.8-0.4-1.1-0.6
			c-0.3-0.3-7.2-6.3-7.9-7.2c-0.7-0.9-0.6-2.3-0.6-2.3L41.3,27.3z"/>
		<path class="st7" d="M41.3,27.3c0,0-0.1,1.4-1.1,2c-1,0.6-9.4,4.2-9.8,4.3c-0.3,0.1-1,0.3-1.2,0.3c-0.2,0-0.8-0.4-1.1-0.6
			c-0.3-0.3-7.2-6.3-7.9-7.2c-0.7-0.9-0.6-2.3-0.6-2.3L41.3,27.3z"/>
		<path class="st8" d="M41.3,27.3c0,0-0.1,1.4-1.1,2c-1,0.6-9.4,4.2-9.8,4.3c-0.3,0.1-1,0.3-1.2,0.3c-0.2,0-0.8-0.4-1.1-0.6
			c-0.3-0.3-7.2-6.3-7.9-7.2c-0.7-0.9-0.6-2.3-0.6-2.3L41.3,27.3z"/>
		<path class="st9" d="M41.3,27.3c0,0-0.1,1.4-1.1,2c-1,0.6-9.4,4.2-9.8,4.3c-0.3,0.1-1,0.3-1.2,0.3c-0.2,0-0.8-0.4-1.1-0.6
			c-0.3-0.3-7.2-6.3-7.9-7.2c-0.7-0.9-0.6-2.3-0.6-2.3L41.3,27.3z"/>
		<path class="st10" d="M41.3,27.3c0,0-0.1,1.4-1.1,2c-1,0.6-9.4,4.2-9.8,4.3c-0.3,0.1-1,0.3-1.2,0.3c-0.2,0-0.8-0.4-1.1-0.6
			c-0.3-0.3-7.2-6.3-7.9-7.2c-0.7-0.9-0.6-2.2-0.6-2.2L41.3,27.3z"/>
		<path class="st11" d="M41.3,27.3c0,0-0.1,1.4-1.1,1.9c-1,0.6-9.4,4.2-9.8,4.3c-0.3,0.1-1,0.3-1.2,0.3c-0.2,0-0.8-0.4-1.1-0.6
			c-0.3-0.3-7.2-6.3-7.9-7.2c-0.7-0.9-0.6-2.2-0.6-2.2L41.3,27.3z"/>
		<path class="st12" d="M41.3,27.3c0,0-0.1,1.3-1.1,1.9c-1,0.6-9.4,4.2-9.8,4.3c-0.3,0.1-1,0.3-1.2,0.3c-0.2,0-0.8-0.4-1.1-0.6
			c-0.3-0.3-7.2-6.3-7.9-7.2c-0.7-0.9-0.6-2.2-0.6-2.2L41.3,27.3z"/>
		<path class="st13" d="M41.3,27.3c0,0-0.1,1.3-1.1,1.9c-1,0.6-9.4,4.2-9.8,4.3c-0.3,0.1-1,0.3-1.2,0.3c-0.2,0-0.8-0.4-1.1-0.6
			c-0.3-0.3-7.2-6.3-7.9-7.2c-0.7-0.9-0.6-2.2-0.6-2.2L41.3,27.3z"/>
		<path class="st14" d="M41.3,27.3c0,0-0.1,1.3-1.1,1.9c-1,0.6-9.4,4.2-9.8,4.3c-0.3,0.1-1,0.3-1.2,0.3c-0.2,0-0.8-0.4-1.1-0.6
			c-0.3-0.3-7.2-6.3-7.9-7.2c-0.7-0.9-0.6-2.2-0.6-2.2L41.3,27.3z"/>
		<path class="st15" d="M41.3,27.3c0,0-0.1,1.3-1.1,1.9c-1,0.6-9.4,4.2-9.8,4.3c-0.3,0.1-1,0.3-1.2,0.3c-0.2,0-0.8-0.4-1.1-0.6
			c-0.3-0.3-7.2-6.3-7.9-7.2c-0.7-0.9-0.6-2.2-0.6-2.2L41.3,27.3z"/>
		<path class="st16" d="M41.3,27.3c0,0-0.1,1.3-1.1,1.9c-1,0.6-9.4,4.2-9.8,4.3c-0.3,0.1-1,0.3-1.2,0.3c-0.2,0-0.8-0.4-1.1-0.6
			c-0.3-0.3-7.2-6.3-7.9-7.2c-0.7-0.9-0.6-2.2-0.6-2.2L41.3,27.3z"/>
		<path class="st17" d="M41.3,27.3c0,0-0.1,1.3-1.1,1.9c-1,0.6-9.4,4.2-9.8,4.3c-0.3,0.1-1,0.3-1.2,0.3c-0.2,0-0.8-0.4-1.1-0.6
			c-0.3-0.3-7.2-6.3-7.9-7.2c-0.7-0.9-0.6-2.1-0.6-2.1L41.3,27.3z"/>
		<path class="st18" d="M41.3,27.3c0,0-0.1,1.3-1.1,1.8c-1,0.6-9.4,4.2-9.8,4.3c-0.3,0.1-1,0.3-1.2,0.3c-0.2,0-0.8-0.4-1.1-0.6
			c-0.3-0.3-7.2-6.3-7.9-7.2c-0.7-0.9-0.6-2.1-0.6-2.1L41.3,27.3z"/>
		<path class="st19" d="M41.3,27.3c0,0-0.1,1.2-1.1,1.8c-1,0.6-9.4,4.2-9.8,4.3c-0.3,0.1-1,0.3-1.2,0.3c-0.2,0-0.8-0.4-1.1-0.6
			c-0.3-0.3-7.2-6.3-7.9-7.2c-0.7-0.9-0.6-2.1-0.6-2.1L41.3,27.3z"/>
		<path class="st20" d="M41.3,27.3c0,0-0.1,1.2-1.1,1.8c-1,0.6-9.4,4.2-9.8,4.3c-0.3,0.1-1,0.3-1.2,0.2c-0.2,0-0.8-0.4-1.1-0.6
			c-0.3-0.3-7.2-6.3-7.9-7.2c-0.7-0.9-0.6-2.1-0.6-2.1L41.3,27.3z"/>
		<path class="st21" d="M41.3,27.3c0,0-0.1,1.2-1.1,1.8c-1,0.6-9.4,4.2-9.8,4.3c-0.3,0.1-1,0.3-1.2,0.2c-0.2,0-0.8-0.4-1.1-0.6
			c-0.3-0.3-7.2-6.3-7.9-7.2c-0.7-0.9-0.6-2.1-0.6-2.1L41.3,27.3z"/>
		<path class="st22" d="M41.3,27.3c0,0-0.1,1.2-1.1,1.8c-1,0.6-9.4,4.2-9.8,4.3c-0.3,0.1-1,0.3-1.2,0.2c-0.2,0-0.8-0.4-1.1-0.6
			c-0.3-0.3-7.2-6.3-7.9-7.2c-0.7-0.9-0.6-2.1-0.6-2.1L41.3,27.3z"/>
		<path class="st23" d="M41.3,27.3c0,0-0.1,1.2-1.1,1.8c-1,0.6-9.4,4.2-9.8,4.3c-0.3,0.1-1,0.3-1.2,0.2c-0.2,0-0.8-0.4-1.1-0.6
			c-0.3-0.3-7.2-6.3-7.9-7.2c-0.7-0.9-0.6-2-0.6-2L41.3,27.3z"/>
		<path class="st24" d="M41.3,27.3c0,0-0.1,1.2-1.1,1.7c-1,0.6-9.4,4.2-9.8,4.3c-0.3,0.1-1,0.3-1.2,0.2c-0.2,0-0.8-0.4-1.1-0.6
			c-0.3-0.3-7.2-6.3-7.9-7.2c-0.7-0.9-0.6-2-0.6-2L41.3,27.3z"/>
		<path class="st25" d="M41.3,27.3c0,0-0.1,1.2-1.1,1.7c-1,0.6-9.4,4.2-9.8,4.3c-0.3,0.1-1,0.3-1.2,0.2c-0.2,0-0.8-0.4-1.1-0.6
			c-0.3-0.3-7.2-6.3-7.9-7.2c-0.7-0.9-0.6-2-0.6-2L41.3,27.3z"/>
		<path class="st26" d="M41.3,27.3c0,0-0.1,1.1-1.1,1.7c-1,0.6-9.4,4.2-9.8,4.3c-0.3,0.1-1,0.3-1.2,0.2c-0.2,0-0.8-0.4-1.1-0.6
			c-0.3-0.3-7.2-6.3-7.9-7.2c-0.7-0.9-0.6-2-0.6-2L41.3,27.3z"/>
		<path class="st27" d="M41.3,27.3c0,0-0.1,1.1-1.1,1.7c-1,0.6-9.4,4.2-9.8,4.3c-0.3,0.1-1,0.3-1.2,0.2c-0.2,0-0.8-0.4-1.1-0.6
			c-0.3-0.3-7.2-6.3-7.9-7.2c-0.7-0.9-0.6-2-0.6-2L41.3,27.3z"/>
		<path class="st28" d="M41.3,27.3c0,0-0.1,1.1-1.1,1.7c-1,0.6-9.4,4.2-9.8,4.3c-0.3,0.1-1,0.3-1.2,0.2c-0.2,0-0.8-0.4-1.1-0.6
			c-0.3-0.3-7.2-6.3-7.9-7.2c-0.7-0.9-0.6-2-0.6-2L41.3,27.3z"/>
		<path class="st29" d="M41.3,27.3c0,0-0.1,1.1-1.1,1.7c-1,0.6-9.4,4.2-9.8,4.3c-0.3,0.1-1,0.3-1.2,0.2c-0.2,0-0.8-0.4-1.1-0.6
			c-0.3-0.3-7.2-6.3-7.9-7.2c-0.7-0.9-0.6-2-0.6-2L41.3,27.3z"/>
		<path class="st30" d="M41.3,27.3c0,0-0.1,1.1-1.1,1.7c-1,0.6-9.4,4.2-9.8,4.3c-0.3,0.1-1,0.3-1.2,0.2c-0.2,0-0.8-0.4-1.1-0.6
			c-0.3-0.3-7.2-6.3-7.9-7.2c-0.7-0.8-0.6-1.9-0.6-1.9L41.3,27.3z"/>
		<path class="st31" d="M41.3,27.3c0,0-0.1,1.1-1.1,1.6c-1,0.6-9.4,4.2-9.8,4.3c-0.3,0.1-1,0.3-1.2,0.2c-0.2,0-0.8-0.4-1.1-0.6
			c-0.3-0.3-7.2-6.3-7.9-7.2c-0.7-0.8-0.6-1.9-0.6-1.9L41.3,27.3z"/>
		<path class="st32" d="M41.3,27.3c0,0-0.1,1.1-1.1,1.6c-1,0.6-9.4,4.1-9.8,4.3c-0.3,0.1-1,0.3-1.2,0.2c-0.2,0-0.8-0.4-1.1-0.6
			c-0.3-0.3-7.2-6.3-7.9-7.2c-0.7-0.8-0.6-1.9-0.6-1.9L41.3,27.3z"/>
		<path class="st33" d="M41.3,27.3c0,0-0.1,1-1.1,1.6c-1,0.6-9.4,4.1-9.8,4.3c-0.3,0.1-1,0.3-1.2,0.2c-0.2,0-0.8-0.4-1.1-0.6
			c-0.3-0.3-7.2-6.3-7.9-7.2c-0.7-0.8-0.6-1.9-0.6-1.9L41.3,27.3z"/>
		<path class="st34" d="M41.3,27.3c0,0-0.1,1-1.1,1.6c-1,0.6-9.4,4.1-9.8,4.3c-0.3,0.1-1,0.3-1.2,0.2c-0.2,0-0.8-0.4-1.1-0.6
			c-0.3-0.3-7.2-6.3-7.9-7.2c-0.7-0.8-0.6-1.9-0.6-1.9L41.3,27.3z"/>
		<path class="st35" d="M41.3,27.3c0,0-0.1,1-1.1,1.6c-1,0.6-9.4,4.1-9.8,4.3c-0.3,0.1-1,0.3-1.2,0.2c-0.2,0-0.8-0.4-1.1-0.6
			c-0.3-0.3-7.2-6.3-7.9-7.2c-0.7-0.8-0.6-1.9-0.6-1.9L41.3,27.3z"/>
		<path class="st36" d="M41.3,27.3c0,0-0.1,1-1.1,1.6c-1,0.6-9.4,4.1-9.8,4.3c-0.3,0.1-1,0.3-1.2,0.2c-0.2,0-0.8-0.4-1.1-0.6
			c-0.3-0.3-7.2-6.3-7.9-7.2c-0.7-0.8-0.6-1.9-0.6-1.9L41.3,27.3z"/>
		<path class="st37" d="M41.3,27.3c0,0-0.1,1-1.1,1.5c-1,0.6-9.4,4.1-9.8,4.3c-0.3,0.1-1,0.3-1.2,0.2c-0.2,0-0.8-0.4-1.1-0.6
			c-0.3-0.3-7.2-6.3-7.9-7.2c-0.7-0.8-0.6-1.8-0.6-1.8L41.3,27.3z"/>
		<path class="st38" d="M41.3,27.3c0,0-0.1,1-1.1,1.5c-1,0.6-9.4,4.1-9.8,4.3c-0.3,0.1-1,0.3-1.2,0.2c-0.2,0-0.8-0.4-1.1-0.6
			c-0.3-0.3-7.2-6.3-7.9-7.2c-0.7-0.8-0.6-1.8-0.6-1.8L41.3,27.3z"/>
		<path class="st39" d="M41.3,27.3c0,0-0.1,1-1.1,1.5c-1,0.6-9.4,4.1-9.8,4.3c-0.3,0.1-1,0.3-1.2,0.2c-0.2,0-0.8-0.4-1.1-0.6
			c-0.3-0.2-7.2-6.3-7.9-7.2c-0.7-0.8-0.6-1.8-0.6-1.8L41.3,27.3z"/>
		<path class="st40" d="M41.3,27.3c0,0-0.1,0.9-1.1,1.5c-1,0.6-9.4,4.1-9.8,4.3c-0.3,0.1-1,0.3-1.2,0.2c-0.2,0-0.8-0.4-1.1-0.6
			c-0.3-0.2-7.2-6.3-7.9-7.2c-0.7-0.8-0.6-1.8-0.6-1.8L41.3,27.3z"/>
		<path class="st41" d="M41.3,27.3c0,0-0.1,0.9-1.1,1.5c-1,0.6-9.4,4.1-9.8,4.3c-0.3,0.1-1,0.3-1.2,0.2c-0.2,0-0.8-0.4-1.1-0.6
			c-0.3-0.2-7.2-6.3-7.9-7.2c-0.7-0.8-0.6-1.8-0.6-1.8L41.3,27.3z"/>
		<path class="st42" d="M41.3,27.3c0,0-0.1,0.9-1.1,1.5c-1,0.6-9.4,4.1-9.8,4.3c-0.3,0.1-1,0.3-1.2,0.2c-0.2,0-0.8-0.4-1.1-0.6
			c-0.3-0.2-7.2-6.3-7.9-7.2c-0.7-0.8-0.6-1.8-0.6-1.8L41.3,27.3z"/>
		<path class="st43" d="M41.3,27.3c0,0-0.1,0.9-1.1,1.5c-1,0.6-9.4,4.1-9.8,4.3c-0.3,0.1-1,0.3-1.2,0.2c-0.2,0-0.8-0.4-1.1-0.6
			c-0.3-0.2-7.2-6.3-7.9-7.2c-0.7-0.8-0.6-1.7-0.6-1.7L41.3,27.3z"/>
		<path class="st44" d="M41.3,27.3c0,0-0.1,0.9-1.1,1.4c-1,0.6-9.4,4.1-9.8,4.3c-0.3,0.1-1,0.3-1.2,0.2c-0.2,0-0.8-0.4-1.1-0.6
			c-0.3-0.2-7.2-6.3-7.9-7.2c-0.7-0.8-0.6-1.7-0.6-1.7L41.3,27.3z"/>
		<path class="st45" d="M41.3,27.3c0,0-0.1,0.9-1.1,1.4c-1,0.6-9.4,4.1-9.8,4.3c-0.3,0.1-1,0.3-1.2,0.2c-0.2,0-0.8-0.4-1.1-0.6
			c-0.3-0.2-7.2-6.3-7.9-7.1c-0.7-0.8-0.6-1.7-0.6-1.7L41.3,27.3z"/>
		<path class="st46" d="M41.3,27.3c0,0-0.1,0.8-1.1,1.4c-1,0.6-9.4,4.1-9.8,4.3c-0.3,0.1-1,0.3-1.2,0.2c-0.2,0-0.8-0.4-1.1-0.6
			c-0.3-0.2-7.2-6.3-7.9-7.1c-0.7-0.8-0.6-1.7-0.6-1.7L41.3,27.3z"/>
		<path class="st47" d="M41.3,27.3c0,0-0.1,0.8-1.1,1.4c-1,0.6-9.4,4.1-9.8,4.3c-0.3,0.1-1,0.3-1.2,0.2c-0.2,0-0.8-0.4-1.1-0.6
			c-0.3-0.2-7.2-6.3-7.9-7.1c-0.7-0.8-0.6-1.7-0.6-1.7L41.3,27.3z"/>
		<path class="st48" d="M41.3,27.3c0,0-0.1,0.8-1.1,1.4c-1,0.6-9.4,4.1-9.8,4.3c-0.3,0.1-1,0.3-1.2,0.2c-0.2,0-0.8-0.4-1.1-0.6
			c-0.3-0.2-7.2-6.3-7.9-7.1c-0.7-0.8-0.6-1.7-0.6-1.7L41.3,27.3z"/>
		<path class="st49" d="M41.3,27.2c0,0-0.1,0.8-1.1,1.4c-1,0.6-9.4,4.1-9.8,4.3c-0.3,0.1-1,0.3-1.2,0.2c-0.2,0-0.8-0.4-1.1-0.6
			c-0.3-0.2-7.2-6.3-7.9-7.1c-0.7-0.8-0.6-1.7-0.6-1.7L41.3,27.2z"/>
		<path class="st50" d="M41.3,27.2c0,0-0.1,0.8-1.1,1.3c-1,0.6-9.4,4.1-9.8,4.3c-0.3,0.1-1,0.3-1.2,0.2c-0.2,0-0.8-0.4-1.1-0.6
			c-0.3-0.2-7.2-6.3-7.9-7.1c-0.8-0.8-0.6-1.6-0.6-1.6L41.3,27.2z"/>
		<path class="st51" d="M41.3,27.2c0,0-0.1,0.8-1.1,1.3c-1,0.6-9.4,4.1-9.8,4.3c-0.3,0.1-1,0.3-1.2,0.2c-0.2,0-0.8-0.4-1.1-0.6
			c-0.3-0.2-7.2-6.3-7.9-7.1c-0.8-0.8-0.6-1.6-0.6-1.6L41.3,27.2z"/>
		<path class="st52" d="M41.3,27.2c0,0-0.1,0.8-1.1,1.3c-1,0.6-9.4,4.1-9.8,4.3c-0.3,0.1-1,0.3-1.2,0.2c-0.2,0-0.8-0.4-1.1-0.6
			c-0.3-0.2-7.2-6.3-7.9-7.1c-0.8-0.8-0.6-1.6-0.6-1.6L41.3,27.2z"/>
		<path class="st53" d="M41.3,27.2c0,0-0.1,0.7-1.1,1.3c-1,0.5-9.4,4.1-9.8,4.3c-0.3,0.1-1,0.3-1.2,0.2c-0.2,0-0.8-0.4-1.1-0.6
			c-0.3-0.2-7.2-6.3-7.9-7.1c-0.8-0.8-0.6-1.6-0.6-1.6L41.3,27.2z"/>
		<path class="st54" d="M41.3,27.2c0,0-0.1,0.7-1.1,1.3c-1,0.5-9.4,4.1-9.8,4.3c-0.3,0.1-1,0.3-1.2,0.2c-0.2,0-0.8-0.4-1.1-0.6
			c-0.3-0.2-7.2-6.3-7.9-7.1c-0.8-0.8-0.6-1.6-0.6-1.6L41.3,27.2z"/>
		<path class="st55" d="M41.3,27.2c0,0-0.1,0.7-1.1,1.3c-1,0.5-9.4,4.1-9.8,4.3c-0.3,0.1-1,0.3-1.2,0.2c-0.2,0-0.8-0.4-1.1-0.6
			c-0.3-0.2-7.2-6.3-7.9-7.1c-0.8-0.8-0.6-1.6-0.6-1.6L41.3,27.2z"/>
		<path class="st56" d="M41.3,27.2c0,0-0.1,0.7-1.1,1.2c-1,0.5-9.4,4.1-9.8,4.2c-0.3,0.1-1,0.3-1.2,0.2c-0.2,0-0.8-0.4-1.1-0.6
			c-0.3-0.2-7.2-6.3-7.9-7.1c-0.8-0.8-0.6-1.5-0.6-1.5L41.3,27.2z"/>
		<path class="st57" d="M41.3,27.2c0,0-0.1,0.7-1.1,1.2c-1,0.5-9.4,4.1-9.8,4.2c-0.3,0.1-1,0.3-1.2,0.2c-0.2,0-0.8-0.4-1.1-0.6
			c-0.3-0.2-7.2-6.3-7.9-7.1c-0.8-0.8-0.7-1.5-0.7-1.5L41.3,27.2z"/>
		<path class="st58" d="M41.3,27.2c0,0-0.1,0.7-1.1,1.2c-1,0.5-9.4,4.1-9.8,4.2c-0.3,0.1-1,0.3-1.2,0.2c-0.2,0-0.8-0.4-1.1-0.6
			c-0.3-0.2-7.2-6.3-7.9-7.1c-0.8-0.8-0.7-1.5-0.7-1.5L41.3,27.2z"/>
		<path class="st59" d="M41.3,27.2c0,0-0.1,0.7-1.1,1.2c-1,0.5-9.4,4.1-9.8,4.2c-0.3,0.1-1,0.3-1.2,0.2c-0.2,0-0.8-0.4-1.1-0.6
			c-0.3-0.2-7.2-6.3-7.9-7.1c-0.8-0.8-0.7-1.5-0.7-1.5L41.3,27.2z"/>
		<path class="st60" d="M41.3,27.2c0,0-0.1,0.6-1.1,1.2c-1,0.5-9.4,4.1-9.8,4.2c-0.3,0.1-1,0.3-1.2,0.2c-0.2,0-0.8-0.4-1.1-0.6
			C27.9,32,21,26,20.3,25.2c-0.8-0.8-0.7-1.5-0.7-1.5L41.3,27.2z"/>
		<path class="st61" d="M41.3,27.2c0,0-0.1,0.6-1.1,1.2c-1,0.5-9.4,4.1-9.8,4.2c-0.3,0.1-1,0.3-1.2,0.2c-0.2,0-0.8-0.4-1.1-0.6
			C27.9,32,21,26,20.3,25.2c-0.8-0.8-0.7-1.5-0.7-1.5L41.3,27.2z"/>
		<path class="st62" d="M41.3,27.2c0,0-0.1,0.6-1.1,1.2c-1,0.5-9.4,4.1-9.8,4.2c-0.3,0.1-1,0.3-1.2,0.2c-0.2,0-0.8-0.4-1.1-0.6
			C27.9,32,21,26,20.3,25.1c-0.8-0.8-0.7-1.5-0.7-1.5L41.3,27.2z"/>
		<path class="st63" d="M41.3,27.2c0,0-0.1,0.6-1.1,1.1c-1,0.5-9.4,4.1-9.8,4.2c-0.3,0.1-1,0.3-1.2,0.2c-0.2,0-0.8-0.4-1.1-0.6
			c-0.3-0.2-7.2-6.3-7.9-7.1c-0.8-0.8-0.7-1.4-0.7-1.4L41.3,27.2z"/>
		<path class="st64" d="M41.3,27.2c0,0-0.1,0.6-1.1,1.1c-1,0.5-9.4,4.1-9.8,4.2c-0.3,0.1-1,0.3-1.2,0.2c-0.2,0-0.8-0.4-1.1-0.6
			c-0.3-0.2-7.2-6.3-7.9-7.1c-0.8-0.8-0.7-1.4-0.7-1.4L41.3,27.2z"/>
		<path class="st65" d="M41.3,27.2c0,0-0.1,0.6-1.1,1.1c-1,0.5-9.4,4.1-9.8,4.2c-0.3,0.1-1,0.3-1.2,0.2c-0.2,0-0.8-0.4-1.1-0.6
			c-0.3-0.2-7.2-6.3-7.9-7.1c-0.8-0.8-0.7-1.4-0.7-1.4L41.3,27.2z"/>
		<path class="st66" d="M41.3,27.2c0,0-0.1,0.6-1.1,1.1c-1,0.5-9.4,4.1-9.8,4.2c-0.3,0.1-1,0.3-1.2,0.2c-0.2,0-0.8-0.4-1.1-0.6
			c-0.3-0.2-7.2-6.3-7.9-7.1c-0.8-0.8-0.7-1.4-0.7-1.4L41.3,27.2z"/>
		<path class="st67" d="M41.3,27.2c0,0-0.1,0.5-1.1,1.1c-1,0.5-9.4,4.1-9.8,4.2c-0.3,0.1-1,0.3-1.2,0.2c-0.2,0-0.8-0.4-1.1-0.6
			c-0.3-0.2-7.2-6.3-7.9-7.1c-0.8-0.8-0.7-1.4-0.7-1.4L41.3,27.2z"/>
		<path class="st68" d="M41.3,27.2c0,0-0.1,0.5-1.1,1.1c-1,0.5-9.4,4.1-9.8,4.2c-0.3,0.1-1,0.3-1.2,0.2c-0.2,0-0.8-0.4-1.1-0.6
			c-0.3-0.2-7.2-6.3-7.9-7.1c-0.8-0.8-0.7-1.4-0.7-1.4L41.3,27.2z"/>
		<path class="st69" d="M41.3,27.2c0,0-0.1,0.5-1.1,1c-1,0.5-9.4,4.1-9.8,4.2c-0.3,0.1-1,0.3-1.2,0.2c-0.2,0-0.8-0.4-1.1-0.6
			c-0.3-0.2-7.2-6.3-7.9-7.1c-0.8-0.8-0.7-1.4-0.7-1.4L41.3,27.2z"/>
		<path class="st70" d="M41.3,27.2c0,0-0.1,0.5-1.1,1c-1,0.5-9.4,4.1-9.8,4.2c-0.3,0.1-1,0.3-1.2,0.2c-0.2,0-0.8-0.4-1.1-0.6
			c-0.3-0.2-7.2-6.3-7.9-7.1c-0.8-0.8-0.7-1.3-0.7-1.3L41.3,27.2z"/>
		<path class="st71" d="M41.3,27.2c0,0-0.1,0.5-1.1,1c-1,0.5-9.4,4.1-9.8,4.2c-0.3,0.1-1,0.3-1.2,0.2c-0.2,0-0.8-0.4-1.1-0.6
			c-0.3-0.2-7.2-6.3-7.9-7.1c-0.8-0.8-0.7-1.3-0.7-1.3L41.3,27.2z"/>
	</g>
	
		<linearGradient id="upper-env_1_" gradientUnits="userSpaceOnUse" x1="-279.1934" y1="179.6486" x2="-279.1934" y2="159.5351" gradientTransform="matrix(-0.987 -0.1606 -0.1606 0.987 -219.4375 -177.2245)">
		<stop  offset="0" style="stop-color:#D5D5D0"/>
		<stop  offset="0.1161" style="stop-color:#E0E0DA"/>
		<stop  offset="0.3441" style="stop-color:#EFEFE7"/>
		<stop  offset="0.6097" style="stop-color:#F8F8EF"/>
		<stop  offset="1" style="stop-color:#FBFBF1"/>
	</linearGradient>
	<path id="upper-env" class="st73" d="M41.4,26.8c0,0-0.1,0.9-1.1,1.4c-1,0.5-9.4,4.1-9.8,4.2c-0.3,0.1-0.8,0.3-1.2,0.2
		c-0.4-0.1-0.8-0.4-1.1-0.6c-0.3-0.2-7.2-6.3-7.9-7.1c-0.8-0.8-0.6-1.7-0.6-1.7L41.4,26.8z"/>
	<path id="yellow-env" class="st74" d="M40.3,26.7c-0.5,1.1-9.7,4.8-10.4,5c-0.7,0.2-1-0.2-1-0.2s-4.8-4.4-6.5-5.9
		c-1.6-1.5-1.9-2.2-1.9-2.2s0,0,0,0l-0.9-0.1c0,0,0,0,0,0c0,0,0,0,0,0l-2.2,13.9c0.4-1.1,1.1-1.4,1.1-1.4l1.6-11c0,0,0-0.1-0.1-0.1
		c0.1,0.1,0.1,0.2,0.2,0.2c0.8,0.8,7.6,6.9,7.9,7.1c0.3,0.2,0.7,0.5,1.1,0.6c0.4,0.1,0.9-0.1,1.2-0.2c0.4-0.1,8.8-3.7,9.8-4.2
		c0.1-0.1,0.2-0.1,0.2-0.2c0,0,0,0,0,0L38.5,39c0,0,0.6,0.6,0.6,1.7l2.2-13.9L40.3,26.7z"/>
	<g>
		<path id="left-head" class="st74" d="M17.7,0C11.8,0,5.9,0.1,0,0.1c1.1,3.1,3.5,6.5,6.8,7.5c-2.9,7.9,3.6,16.3,12,15.5
			c8-0.8,12.9-9.7,9.2-16.9C26,2.4,21.9,0,17.7,0z"/>
		<circle id="left-eye" class="st75" cx="17.5" cy="11.6" r="8.4"/>
		<circle id="not-wink" class="st76" cx="19.1" cy="12.5" r="3.4"/>
	</g>
	<path id="right-head" class="st74" d="M52.7,2.7c-2.5,0-5,0-7.5,0c-2.5,0-5.2-0.2-7.6,0.1c-5.1,0.5-8.9,5.2-8.3,10.3
		c0.5,5,5.1,8.8,10.1,8.3c6.2-0.5,10.2-7.1,7.8-12.8c0.7,0,1.5-0.6,2-1C50.9,6.3,52,4.6,52.7,2.7z"/>
	<circle id="right-eye" class="st75" cx="39" cy="12" r="6.6"/>
	<path id="beak" class="st76" d="M29.3,12.4c0,0-2,3.9-4.9,5.9c0,0,2,6.9,4.9,8.9c3-2,4.9-8.9,4.9-8.9
		C31.2,16.3,29.3,12.4,29.3,12.4z"/>
	<g>
		<g>
			<path class="st76" d="M35.6,13c0.5-0.1,1.9-0.3,3.6,0.4c0.1,0,0.2,0,0.3-0.1l0,0c0-0.1,0-0.2-0.1-0.3c-1.8-0.7-3.3-0.6-3.8-0.5
				c-0.1,0-0.2,0.1-0.1,0.2l0,0C35.4,13,35.5,13.1,35.6,13z"/>
		</g>
		<g>
			<path class="st76" d="M35.1,12.5c2.8-1.7,6.6-0.8,7.5-0.6c0.1,0,0.2,0,0.3-0.2l0,0c0-0.1,0-0.3-0.2-0.3c-0.7-0.2-2.9-0.7-5.2-0.3
				c-0.1,0-0.2-0.2-0.1-0.2c0.5-0.3,1.1-0.6,1.7-0.8c0.1,0,0.2-0.2,0.2-0.3v0c0-0.1-0.2-0.2-0.3-0.2c-2,0.6-3.7,1.9-4.2,2.4
				c-0.1,0.1-0.1,0.2,0,0.3l0,0C34.9,12.6,35,12.6,35.1,12.5z"/>
		</g>
	</g>
	<g id="bs-text">
		<g>
			<g>
				<path class="st76" d="M69.6,21.8c0,4.5-2.1,6.7-5.7,6.7c-3.1,0-5.4-1.8-5.4-5.4V9.3c0-0.5,0.4-0.9,0.9-0.9
					c0.5,0,0.9,0.4,0.9,0.9v7.7c0.6-0.9,2-1.8,3.8-1.8C67.6,15.1,69.6,17.2,69.6,21.8z M60.3,23c0,2.6,1.5,3.8,3.6,3.8
					c2.5,0,3.9-1.6,3.9-5.1c0-3.4-1.4-5-3.9-5c-2.6,0-3.6,2.4-3.6,2.4V23z"/>
			</g>
			<g>
				<path class="st76" d="M72.2,11.6c0-0.8,0.4-1.1,1-1.1c0.7,0,1,0.3,1,1.1c0,0.7-0.4,1.1-1,1.1C72.6,12.7,72.2,12.3,72.2,11.6z
					 M74.1,27.4c0,0.5-0.4,0.9-0.9,0.9s-0.9-0.4-0.9-0.9V16.2c0-0.5,0.4-0.9,0.9-0.9s0.9,0.4,0.9,0.9V27.4z"/>
			</g>
			<g>
				<path class="st76" d="M79.5,17.4c0.6-1.3,1.9-2.2,3.8-2.2c0.5,0,0.9,0.4,0.9,0.9c0,0.5-0.4,0.9-0.9,0.9c-2.5,0-3.8,1.8-3.8,4.3
					v6.2c0,0.5-0.4,0.9-0.9,0.9c-0.5,0-0.9-0.4-0.9-0.9V16.2c0-0.5,0.4-0.9,0.9-0.9c0.5,0,0.9,0.4,0.9,0.9V17.4z"/>
			</g>
			<g>
				<path class="st76" d="M94.6,16.9V9.3c0-0.5,0.4-0.9,0.9-0.9c0.5,0,0.9,0.4,0.9,0.9V23c0,3.6-2.3,5.4-5.4,5.4
					c-3.6,0-5.7-2.1-5.7-6.7c0-4.5,2-6.6,5.6-6.6C92.6,15.1,93.9,16,94.6,16.9z M94.6,19.2c0,0-1-2.4-3.6-2.4c-2.5,0-3.9,1.6-3.9,5
					c0,3.5,1.4,5.1,3.9,5.1c2.1,0,3.6-1.2,3.6-3.8V19.2z"/>
			</g>
		</g>
		<g>
			<path class="st74" d="M101.4,18.5c0,2.9,7.3,1.8,7.3,6.2c0,2.5-2.1,3.6-4.7,3.6c-2.3,0-4-1.1-4.7-2c-0.1-0.2-0.2-0.3-0.2-0.5
				c0-0.4,0.4-0.8,0.8-0.8c0.2,0,0.4,0.1,0.6,0.3c0.9,0.9,2,1.4,3.5,1.4c1.6,0,2.9-0.5,2.9-2c0-2.8-7.3-1.7-7.3-6.2
				c0-2.3,1.9-3.3,4.2-3.3c1.9,0,3.3,0.6,4.2,1.8c0.1,0.1,0.2,0.3,0.2,0.5c0,0.4-0.4,0.8-0.8,0.8c-0.1,0-0.4,0-0.6-0.2
				c-0.7-0.7-1.6-1.2-3-1.2C102.6,16.8,101.4,17.2,101.4,18.5z"/>
			<path class="st74" d="M116.5,15.1c4.4,0,5.3,3.5,5.3,5.4c0,0.8,0,1.8-1.1,1.8h-8.1c0,2.7,1.6,4.5,4.2,4.5c1.6,0,2.5-0.6,3.3-1.2
				c0.2-0.1,0.3-0.2,0.5-0.2c0.4,0,0.8,0.4,0.8,0.8c0,0.3-0.1,0.5-0.3,0.6c-0.4,0.4-1.9,1.5-4.3,1.5c-3.7,0-6-2-6-6.7
				C110.8,17.5,112.9,15.1,116.5,15.1z M116.5,16.7c-2.4,0-3.7,1.5-3.9,4h7.4C120,18.7,119.3,16.7,116.5,16.7z"/>
			<path class="st74" d="M135,20v7.4c0,0.5-0.4,0.9-0.9,0.9s-0.9-0.4-0.9-0.9v-7c0-2.2-0.6-3.7-3.3-3.7c-2.7,0-3.7,1.7-3.7,3.9v6.8
				c0,0.5-0.4,0.9-0.9,0.9s-0.9-0.4-0.9-0.9V16.2c0-0.5,0.4-0.9,0.9-0.9s0.9,0.4,0.9,0.9v0.9c0.5-1.1,1.9-1.9,3.7-1.9
				C134.2,15.1,135,17.7,135,20z"/>
			<path class="st74" d="M146.8,16.9V9.3c0-0.5,0.4-0.9,0.9-0.9c0.5,0,0.9,0.4,0.9,0.9V23c0,3.6-2.3,5.4-5.4,5.4
				c-3.6,0-5.7-2.1-5.7-6.7c0-4.5,2-6.6,5.6-6.6C144.8,15.1,146.2,16,146.8,16.9z M146.8,19.2c0,0-1-2.4-3.6-2.4
				c-2.5,0-3.9,1.6-3.9,5c0,3.5,1.4,5.1,3.9,5.1c2.1,0,3.6-1.2,3.6-3.8V19.2z"/>
		</g>
	</g>
</g>
</svg>
